<svg xmlns="http://www.w3.org/2000/svg" xml:space="preserve" width="1140" height="1445" viewBox="0 0 515.5 653.5"><path fill="#f9f8f6" d="M0 0h515.5v653.5H0z"/><path fill="#d4dce1" stroke="#f4f3f0" stroke-miterlimit="10" stroke-width=".501" d="m329.7 359.2-4.1 1.6-2.4-1.7-6.7 1.9-.4.4-2.6-1.4-1.9 2.2-2.5-3.3-3.3-3 1-2.3-3.3-1.3-4.6 4.1 1.1 2.1-1.2 2.4 1.4 2.5-1.5 5-3.6-.6-2.2-2.1 1.1-1.7-2.6-1.1-1.8 1.3-2.9-.3-1.3-2.1-6.5-.5-2.1 1.2-3 .7v2.5l3.3 1.3 2.8 2.2-2.1.9-1.2-.3-.4.9-.1-1.1-2.1-.6-.4 3.2-5-2.7.3-5.1-2-1-4-.2-1.4-2.5-2.5-.1V358l-2.7-.2-.3-3-4.7-1.2-1.8-2.1-2.5.4-1.2-1.2-2.7 3.2-.8-1.6 1.1-2.3-1.5-2.7 1.8-1.5-.4-.2-.3-1.7-4.1.5.2 2.4h-2.2l-2.6-1.9 3.6-3.9-.3-2.6 1.3-3.1 2.6-.5 1.3-2.8-.5-2.5-3.2.8-.3-1.6 4.2-1.1-1.2-2.9v-.3l.8-.9 3.3-.1.9 1.6 3.1-1 .1-2.4-2.5-.7.5-2.7-9.8-2.3.8-1.7 2 1.2.8-4.1-1.7-2.2-4.1-.4-.9-2.7-3.6-.1.2-1.6-1.7-1.2-.6-3.3.2.2 4.5-3.2 4.2-.1 2.2-3.2 3.8.8 3.5-2.8 2.1-4.5 4.9 2.1 4.6-.9.6-3.5 2.3-1-.2.5 7-.4 3.2 3.2-1.2 1 2.9 3.5-.1 5.4-.5.3.6.3 7.9 1.2 7.2-.8 3.5 2.2 1.3 1.8 1.9 2.8-2.2 2.4-1.8.2-.3-.2v2.6l4.3 1.2 12.9 7.1 6.8.4 3.9-.2.2 2.9 4.3 1 4.3-1.4.9 2.8 3.8.2 2.3 2.3 9.6 1 3.3-3.9-2.5-1.4-13.8-5.8 18.1 2.3.5 1.3 6.4.8.3 3 6.6 1.8.8 4.9h-7.4l-2.3 3.7-5.2-.8v2.4l-3.9-.1-1.3 2.8 1.7 4.8 2.4.4v.8l-2.7 2.5-3.2-.4-2.3 2.7v2l-4.3.8-1.1-4.7-5.1 1.8-3 2.7 1.1 2.4 2.9-.4 1.6 3.1-3.5.2z"/><path fill="#d4dce1" stroke="#f4f3f0" stroke-miterlimit="10" stroke-width=".501" d="m288.1 210.2 8.4-5.6 1.2-3.3 2.6.1.5-2.5 2-.1 1.4 3.9 4.3.1 3.7 2.6-.9 2.5 5.8 2.1 5.9-1.4.8 1.6 2.5-1 2.7 4.6h.6l-2.5 1.7.2 4 1.5 3.9-2.8 2.1-1.2 3.5 1.7.8-.5 2.4 2.1 1 1.1-3.4 3 3.6-2.2 3.9 1.3 5.4-1.9 4.6 2 2.6-3.3 2.1 2.8 4.3 5.8 6.2 2.2-2.4 2.5 3.4 3.7.5 1.6-2.7 5.2 3.2 2.1-.2-.1.2 1.9 2.2 3.6-.6 4.2 3.8 5.3-.6.2 1.4.3.3-2 .6 1 9-4.3 3.3-2.9-1.9-1.8 2-4.7-2-3.3 2.5-3.2-2.1-2.7 4-6.9-1.6-1 3-9.9 1.1.3 4.6-2.8 1.8 1.9 8.6-1.5.2 1.8 5.6-.8 2 17.7 6.3 3 .6-1.7 3.1 2.5 1.4-3.3 3.9-9.6-1-2.3-2.3-3.8-.2-.9-2.8-4.3 1.4-4.3-1-.2-2.9-3.9.2-6.8-.2-12.9-7.3-4.3-1.2v-2.6l.3.2 1.8-.2 2.2-2.4-3.2-4.6-3.5-2.2-7.2.8-7.9-1.2-.6-.3.5-.3.1-5.4-2.9-3.5 1.2-1-3.2-3.2-7 .4.2-.5-.4.1-1.6-6.4-2.3-1v-4.8l2.4-2.1-.1-3.8-3.3-1.6h-.1l.7-2.6 3.4.8 1.3-3 3.9.9v-.2l3 .7 2.1-2 3 .6-.4-2.7 4-2.4.5-2h-1.7l-.7-2.5 2.6-.9.3-.5-.3-.2v-2.4l-2.2-.5-1.2-3.2 3.5.3.3-2.4-6.4-4.6.2-1.9-.1-.2.2-1 2-.5-2.7-4.1 2.2-1-.4-2.3-1.8.8-4.3-6.2h-1.5l-1.7-3.8.4-3.6 2.5-.7-.1-.5.4.4 5.2.8 2.4-4.7h4.1l.6 1.8 2.6-1 2.2 1.4 2-.2z"/><g fill="#d4dce1" stroke="#f4f3f0" stroke-miterlimit="10" stroke-width=".501"><path d="m341.7 112.2-1.9.2-.8 2.4v1.3l-1.2.6.3 1.3 2.8.3v-1.7l3.9-.7 4.8.4 5.2-1 1.9.9 2.6-2.2-.3-.5-14.2.2-3 .4zm32.8-11.9 2.5-.5 4.1.1-.2 2.2-2.1-.2.1 1.8 2.4 2.5 2.8.3 1.8-.4h4.1l1.5 3.1-2.6 3-1.5-1.3-1.2 2.3 1.9 4.1 3.5-.5 2.7 3.8-1 4-1.7-.3-.7-3.3-1.3-.3-.4 2.2h-1.3l-.5-2.8-1.3.3-.2 2.3h-1.2v-1.8l-5.4.9-1.7 3 2.2 1.6-1.2 1.4-2.3-1.4-2.6-2.4-2.9-1.7-1 1.1v-.8l-2.4-.6.4-3.7 4.7.8-.3-2-3-2.3 1.1-.9 3.5-.2v-1.3h-1.7l-.3-1.7-2.2-.2-.4-2.4 2.6-.9 2.2 1 .3 1.8 1.7.3.1-3 2-.2.7 3.1h1.2l.4 2.6 2 .3.5 4.1 1.8.1 1.4-1-1.1-4.2-1.4-.7v-3.6h-.9l-3.1-1.1-1.6-2.9-1.6 1.1-1.3 1.6h-1.5l.5-3.8-1.6.1v-2.1zm20 31.4 2.7 2.9-.5 3.1 1.6 1.1.6-.9 1 .4-1.1 1.9.7.9 2.1-1.4V136l-2.1-.5-2.7-4.6z"/><path fill-rule="evenodd" d="m404.2 137-.4.8 3.1 3.2-.1 2.3-2.9 1-.4-2.9-2.2.1-.5 1.1 1.6 2.4.1 2.5-1.4.7.2 2.2h3.3l.7-1.4 8.9.2.1-4.3-5.4-5.9z" clip-rule="evenodd"/></g><g fill="#d4dce1" stroke="#f4f3f0" stroke-miterlimit="10" stroke-width=".501"><path fill-rule="evenodd" d="m93.4 163.8-4.6.9.1 1.9 2.2 2H93l-.9-2.1 1.3-1.4 2.7 1-.1-1.6z" clip-rule="evenodd"/><path d="m93.4 163.8-4.6.9.1 1.9 2.2 2H93l-.9-2.1 1.3-1.4 2.7 1-.1-1.6z"/><path fill-rule="evenodd" d="m99.7 160.2-2.1.1.2 3 2 1.2.1-2.1 7.3-1.1-.4-1.6z" clip-rule="evenodd"/><path d="m99.7 160.2-2.1.1.2 3 2 1.2.1-2.1 7.3-1.1-.4-1.6zm14.1-2.8h-2.6l-2.4 2.1.9 1.1 4-1 3-.3.1-1.7z"/><path fill-rule="evenodd" d="m124.1 155.3-2 .6.1 2.4 2.8.3-.2-1.7 5.3.1-.1-1.6z" clip-rule="evenodd"/><path d="m124.1 155.3-2 .6.1 2.4 2.8.3-.2-1.7 5.3.1-.1-1.6z"/><path fill-rule="evenodd" d="m133.8 153.9-1.8.8.9 2.3 1.4-.9 3.4-.6z" clip-rule="evenodd"/><path d="m133.8 153.9-1.8.8.9 2.3 1.4-.9 3.4-.6z"/><path fill-rule="evenodd" d="m141.4 152.8-1.7.4.6 1.9s2.7-.5 3-.5 2.6.3 2.6.3z" clip-rule="evenodd"/><path d="m141.4 152.8-1.7.4.6 1.9s2.7-.5 3-.5 2.6.3 2.6.3z"/></g><g fill="#d4dce1" stroke="#f4f3f0" stroke-miterlimit="10" stroke-width=".501"><path d="m278.3 109-2.7 3.1.5 3 2.7-1.1 1.1 1.4-.1 1.7 1.7 1.5.8-2.4 3.4-.2 1.2 1.7 2-.7-2.7-5.7-3.6-1.8zm-90.7.7-2.5-.8-4.1 1.7.4 2.6 4.5-.2zm-12.2-2.5-3.2 1.7.8 2.5 2.5-.2 1.9-3.3z"/><path fill-rule="evenodd" d="m161.9 98.1-2.8 1.8 2.6 4.5 2.8-.6-1.8-2-1-1.5 1-1.3z" clip-rule="evenodd"/><path d="m161.9 98.1-2.8 1.8 2.6 4.5 2.8-.6-1.8-2-1-1.5 1-1.3z"/><path fill-rule="evenodd" d="m165.5 95.2-1.7 2.1.1 1.3 1.9 1.2 4.3-.2.7.9 1.7-2.7-1-2.7-1.9-.4-.4.7z" clip-rule="evenodd"/><path d="m165.5 95.2-1.7 2.1.1 1.3 1.9 1.2 4.3-.2.7.9 1.7-2.7-1-2.7-1.9-.4-.4.7z"/><path fill-rule="evenodd" d="M164 76.5h-1.5l-.5 3.4-3 5.8-.7 10.3h1.1l.7-7.2 1.6-.9 1.6 1.8 2.7-.1-.3-2.4-2.1-.3-1.7-1.5.6-3.2 1.1-1.9 1.7.2.3-1.6-1.4-.4 2.2-1.6z" clip-rule="evenodd"/><path d="M164 76.5h-1.5l-.5 3.4-3 5.8-.7 10.3h1.1l.7-7.2 1.6-.9 1.6 1.8 2.7-.1-.3-2.4-2.1-.3-1.7-1.5.6-3.2 1.1-1.9 1.7.2.3-1.6-1.4-.4 2.2-1.6z"/><path fill-rule="evenodd" d="m166.8 112.9-1.2.9 1.7 2.6 1.6-1.3z" clip-rule="evenodd"/><path d="m166.8 112.9-1.2.9 1.7 2.6 1.6-1.3zm3.8-7.7h-1.7l-.5 2 1.7.6 1.6-.9z"/></g><path fill="#d4dce1" fill-rule="evenodd" stroke="#f4f3f0" stroke-miterlimit="10" stroke-width=".501" d="m221.9 168.6 1.4-6.5 2.2 3.7 2.9-3.1.9-1.8 2.2 1.9 1.3-2h3l.7-2.1 3-1.7 1.2 1.5-1.6 2.3 2.9 2.4-1 3.2h-2.3l.5 4 2.7-.1 3.5 3.6.3 2.7-2.1-.2-.4 1.6-3.6-.1-3.8-4-2.3 1.6-.7 1.2h-2.9l-1.3-2.4-1.1.1-1.2 2.2-1.9-2-.6-2.6-1.6-.8-.3-2.8z" clip-rule="evenodd"/><path fill="#d4dce1" stroke="#f4f3f0" stroke-miterlimit="10" stroke-width=".501" d="m91.3 223.3 4.9-.7 4.7 1.8 2.7-1.3.3 3.4 5.8.4 2.4 3.3 3.4-.6.6 4.4-2.8 1.7 2.1 7.3 1.6 1.5 2.3.8 6.4-5.1 3.1-.3.6-3.4-1.6.2 1.4-2.1 4.1-.2 1.5 5.1 3.3.5 4.9-1.5 2.2 4.5-1.6 1.5-1.2 3.5.9 4.7 3.9-1.4.5 3.3-5.5 2.3 2.4 3.5 3.2-1.7h7.2l3.2-3.5 5.3.6 1.2-2.3 3.2.3-.3-3-1.2-.6-.1-3.8 6.3.7h4.3l3.8 2.4-1.3 2.4.9.4 4.3-1.9 5.1.2 1.2 3.7 2.3-1.2 3 1.1.4 1.8 1.8 2.4-1.1.7.2 5 2.1.5 1.1-1.2.8 3.3 2.3.3 1.1 4.3 3.2.1.9 4.9-2.5.7-.7 6.3 1.9.5.6-.2-.1 1.7-4.3.4 1 1.9-2.7 4.3-3.5 2.4-3 1.6-2.1.1-.6-3.1-4.9-.8-.4-.8.2.9-2.8 1.9.9 2.7 1.7.1-1.5 3-3 .5-1-1.5-6.1 1-5.6 6.9 1.3 2.2 5.4-2.7.6.5 1 6.6-1.7.4-.3 2.2 1.6 3.4-5.4-.6-.5-.5-1.2 2 .3 2.9-3.6 4.4.2 2.2-4.8 3.5-3.7-1.3-6.8 4.6-.2.1 1.9 3.9-1.9 2.6-1.9-1.2-1.2.6-.5-1.3-4.3-3.6 1.2-1.2-.3-2.1-3.1-.5-.3-1.2-3.4-.7.8-3.3-1.4-.6-.9.4-.1-.2-2.5 1.4.7 1.4.9 3-2.4.1-.2 1.3-1.9-.3-.7.5h.6l-.1 2.5-3.3-.2-.9 3.1-1.2-1.5-5.5 2.4-2.9.6v1.3l-3 3.1-4.4-.1.2-2.1h-1.5l.2 2.4-1.7 1.6-2.1-.5-1.2 1.3-1.7-1.6-1 2.5-2.6.7-1.6-.3-.3 1.7-1.7.7.7 3.1-2.3 1.4-3.3-2.8-2.1.8.8 2.6 1.2.7-.2 1.5.7 1.4-2.8 2.2-1.8-.2-1.4-1.9-.6 1.5-1.2-.3-.5-2.7-2.6 1.8-1.6-.7-2.6 2.3-.8-2.6-2.5-.3-.2 1.4-1.5.5-.9-1.1 1.4-4.6-1.8-.2-.1-2.3-4-.3-1.4.7-1.6-3.5 3.7-3.7-.1-.8-3.7-.1.1-1.6-2.6-3.6-4.7-.4-.4-2.8-2.2-2.5h1.9l.8-2.2 2-.8.2-2 .4-1.4-2.8-.9.3-2.8-2.8-1-3 1.8-1.8-4.9 2.1-1.7 1.8 2.4 1.1-.7-.6-1.3 11.3-4.6 3.9-1.6v-2.8l-3.3 1.2-.5-.4.1-2.6 6.2-7.6v-9.9l-1.8-2.2-1.4-2-2.4-1.3-.3-.7 1.4-2.5-2.5-.5-1.2-1-.1-2.2-3.3-.8.8-2.1.6-.1.2-1.4-1.3-1.7 4.7-3.3 1.1 1.8 3.1-.2-2-3.1 1.8-.8 2.7 2.5 2.7-.5 1.2 1.6 2.2-.2.6 1.8 1-.4.2-3 4.4 1 2.8-2.9 1.8 1 3.7-2.2 1.3 2.5 3.4-2.1-.3-1.8 1.2-.7-.2-2.3-2.3-1.7-2.4-.6H90l.3-2 2.3-.1 1.1-3.2 4-.3 1.4-2.6 2.6-.3 1-3.7h3.4l-1.5-3.2 2.2-3.9-.3-2.3-1.4-.2-1.4-4-1.9 1.9-4.5-1.2-5.5.1-.8-3.2-1.4-1.9 4-1.8-.6-1.5h-1.6z"/><path fill="#d4dce1" stroke="#f4f3f0" stroke-miterlimit="10" stroke-width=".501" d="m134.8 329.7 2.3-1.3.3.1.9-.4 1.4.6-.8 3.3 3.4.7.3 1.2 3.1.5.3 2.1-1.2 1.2 4.3 3.6.5 1.3 1.2-.6 1.8 1.3-.5.8 1.9 5.7-.3.1-1.7 2.5-2.9-1.4-3.2 3.4 1.3 3-2 2.1 3.1 1.5 1.9 3.3 2.6 3.1-1.1 1.3-2.2-.9-1.3 1.2 1.5 1.9-1.7 1-1.7-1.4-3.8 1.9-.7 1.7 2.1 1.5-.2 2H141l-.9-.9-.5 2.8-2.6-.1v.2l-.2 1.2 3.1 3.5 1.2 2.2 4.9-.5 8.4-3.3 3.9.1 5.5 5-1.2 4.1 2.6.8-.7 2.8 2.3 2.7h2.4l-.2 3.2-2 .3-3.5 1.4 2.4 6-4.1 2.3-.6 3.9.1 1.9 2.7-.6 1.4 2.3 2.2-.8-.2.5 2.9-.5.1 2.1-2.1.2.7 1.4-2.2.4-.9-1.2-2.2 1.6 1.2 4.1 4.6.3-2.5 3.2-1.6-.1-1.3 3.9-.9 4.9.2.9-.6-.3-2.7 2 .5 2.6-4.1 2.1-3.4-.3-4.4-2.7-5.2-2-3.9.4-1.4-1.1-2.3 2.2-1.4-2.2-3.8 1.1-1.6-2-3.5.4-2.6-6-5.7.2-1.3-1 3.9-2.1-.1-1.6h1.8l.4-1.3-1.8-.6.4-1.5-2-.9.1-2.9.2-.2.1-1-1.4.7-3.5-1.1-1.9-2.1.2-1.4 2.7-.3.1-1.8-1.6-.2 1-2.2v-1.3l-1.5-.2v-1.5l-1.9 1-1.6-.9-1.1-1.2-3.8-.3-2.2-2.4-5.2.2-1.7 2.4h-2.7l-1.8 2-4.4 1.3-2.3-.5-2 2-2.6-1.5-1.7.7-1.8-1.4h-5v-1.7l3.2-2.9-.5-2.2 3.2-2.7 1-5.5-2.5-1.3-1.6 1.1-3.5-2.7-1.9.6V392l-2.3-.3-1.4-3.2-3-1.9-1.5-3.6-.7-4.3.5-4.3 2.6-.6-1.3-3.3 5.8-2.3.8-3.4 3.1 1 1.6-1.1-.5-2.2.2-1.4 2.5.3.8 2.6 2.6-2.3 1.6.7 2.6-1.8.5 2.7 1.2.3.6-1.5 1.4 1.9 1.8.2L91 362l-.7-1.4.2-1.5-1.2-.7-.8-2.6 2.1-.8 3.3 2.8 2.3-1.4-.8-3 1.8-.8v-1.8l1.9.4 2.6-.7 1-2.5 1.7 1.6 1.2-1.3 2.1.5 1.7-1.6-.2-2.4h1.5l-.2 2.1 4.4.1 3-3.1v-1.3l2.9-.6 5.5-2.4 1.2 1.5.9-3.1 3.3.2.1-2.5-.3-.2.4-.3 1.9.3.2-1.3 2.4-.1-.9-3z"/><path fill="#d4dce1" stroke="#f4f3f0" stroke-miterlimit="10" stroke-width=".501" d="m152.1 344.1 1.9 5.7-.3.1-1.7 2.5-2.9-1.4-3.2 3.4 1.3 3-2 2.1 3.1 1.5 1.9 3.3 2.6 3.1-1.1 1.3-2.2-.9-1.3 1.2 1.5 1.9-1.7 1-1.7-1.4-3.8 1.9-.7 1.7 2.1 1.5-.2 2H141l-.9-.9-.5 2.8-2.6-.1.1.1-.1.1-.2 1.2 3.1 3.5 1.2 2.2 4.9-.5 4.9-1.8 3.5-1.5h1.7l2.2.1 5.5 5-.2.4-1 3.7 2.6.8-.7 2.8 2.3 2.7h2.4l-.2 3v.2l-2 .3-3.5 1.4v.3l1.6 3.9.8 1.8h.1l.3.2h3.2l4 4.1 2.6-1.5-1.5-4.1-.4-.5 5.5-.8.5 1.7-1.8.8 1.7 3.3 4.6-.3.8 2.2 3.3-1.2-.3 3.2-2.1.2-.4 3.3 1.7 1.1 4.9-6.7 3.8.4 3.3-1.3-2.1-2.5.1-1.7-1.2-1.1 1.5-2.7v-3.1l2.2-.7.4-2.4-1.9-.3 1.2-2.3-1.7.3.2-3.2h-2.1l-.9-2.3-.8-6.7 1.2-.1v-2.9l-3.1-1.2 2.3-3 5.3-.3.7 2.2 1.7-.4.2-3.5 7.7 1.3 2.1 3.2 5.4-1.6.5-3.5-1.7-1 1.5-3.4 5.2-.2.8-1.5 3.9-2v-4.7l1.3-3.4 4.3 2.5 3.5-1 1.8-1.5 3.9-4.6-.8-1.6 1.1-2.3-1.5-2.7 1.8-1.5-.4-.2-.3-1.7-4.1.5.2 2.4h-2.2l-2.6-1.9 3.6-3.9-.3-2.6 1.3-3.1 2.6-.5 1.3-2.8-.5-2.5-3.2.8-.3-1.6 4.2-1.1-1.2-2.9v-.3l.8-.9 3.3-.1.9 1.6 3.1-1 .1-2.4-2.5-.7.5-2.7-9.8-2.3.8-1.7 2 1.2.8-4.1-1.7-2.2-4.1-.4-.9-2.7-3.6-.1.2-1.6-1.7-1.2-.6-3.3-.6-1.5-2.3.3-.7 1.8-1.1-.9-3.7 1.7 1.7 2-1.5 2.4-4.5-1.6-2.8-2.2v-2.7l3.3-1.4-.1-4.4h-1.2l-.6-2.7 3.1-2.9h-.2l-.1-2.5-3.4-.7-5.8-.4-.6-.5-.1 1.7-4.3.4 1 1.9-2.7 4.3-3.5 2.4-2.7 1.4-.3.2-2.1.1-.6-3.1-4.9-.8-.6-1 .5 1-2.9 2 .9 2.7 1.7.1-1.5 3-3 .5-1-1.5-6.1 1-5.6 6.9 1.3 2.2 5.4-2.7.6.5.8 4.7.2 1.9-1.7.4-.3 2.2 1.6 3.4-5.4-.6-.5-.5-1.2 2 .3 2.9-3.6 4.4.2 2.2-4.8 3.5-3.7-1.3-7 4.7 1.9 3.9-1.9 2.6m124.8-225 .9 1.1 1 9.7-4.3 2.9-4.4 4.5-4-2.4.2 3.2-2.6-.1 1.3 4.3 4.6-.4.6 2.4 2.6 2.7-1.1 1.8-1.7-1.1-2.5.7-3.3 1.2-1.5 2.9 2.2 1.5-.6 3.2h1.3l2.5 3.1 4.6.1.5 3.3-1.2.2-.4 4.1-4.5-.1.1 3.9-1.6 1.6-3.5-.3-.5 2.3-3.3.1v5.6l-6.3-.8-.4-.3-3.3-3.2-3.4.2-.2-2.2-3.5-3.7-2.7.1-.6-4h2.4l1-3.2-2.9-2.4 1.5-2.3-1.1-1.5-3 1.7-.7 2.1h-3l-1.3 2-2.2-1.8-1 1.7-2.8 3.2-2.3-3.8-1.3 6.5-7.4-3.7-2.7-6.1v-.1l-3.4-2.1-2-4.4-4.2-3.1-3.9-1.1h-4.8l-2.2-.7-2.2 1.1-2.4-1.2-1.9-3.5-.2-1.9-2.4-2 .8-1.1 3.4-.2 1.3 1.2 1.4-1.5-1.3-.9-1.1-3.8-1.9-.1-2.1.2-1.4-3 1.5-2.3-.3-2.5 3.9-.1 1.8-3.2-.5-.9-1.9 2h-4.2l-3.6-.4-1.9 2.4-2.9-1.5-1-2.4 1.2-2 1.3.4.2-1.1-1.8-.5.5-1.3 3.5-.8 5.7.7 3.3-.9 1.9-2.7 1.8-.1.4-2.2-1.3-2.1-1.8-.7-2.2-4.8-1.9-.3-1.7-2.4h-1.8l-1.1-3.4-2.1-.1.6-3.3-1.1-1.4-1-.2-.5-1.7-1.7-.5.4-2.3 1-2.5 1.7-.3.4 1.3 3.4.5 2-1h6.3l3.4 2.1 5.1.2 3.4 1.1.1 2.3 5 .3 1.5-2 1.2 1.2.2-.2 3.5-.5 4-3 .2 3.3 2.9 1h2l.6.7 2.1.3 2.8 3 3.1-2.9 2 1.7.1 2.3 1.5 1.3-2.5 1.7-.2 2.4-4.1 2.7.3 1 4.3-2.1 1.3-1.9 2.3-.3v3.7l.3 2.6-2.6 2.6-5 1.6.5 1.7 6-1.3 5.2-.7 2.2.4-1.5 2.7.9.9-1.4 2.3.2 3.8 2.3-2-1-1.5.8-2 1.4.5 3.9-2.3 5.1 1.6 9.6 4.1.4 1.8 5.5.6 6.4-4.8zm144.5 65 2 3.2-3 3.6.2 3.3.1 2.7-2.4 3.6-8.1 5.1-.8-1.7-1.2 1.9.1 2h3.6l3.9 4.1 2.1-.6 4 5.1 8.4 2.8h2.1l2.5 3-1.5 3.4 1 2.3.4 1-4.1 2.8v3.3l1.9 4.5-.1 3.4 6.7 1.5-1.6 3.5.5 1.9-1.4 1.7.7 3.9 3.3-.5-.3 4.2-2.2 1.4 2.3 4.5-3 3-2.2 1 3.5 5.9-1-2.3-1.8 5.7 3.9 3.7 7.7 5.1-11 .6-3.5 4.3-5.1-.2-.8-2.2-9.6 6.6-9-3.5-4.6 3.9.6 4.4-1.3 3.3-.9-4.5-4.5 1.8-8-1.1-6.5.7-5.5-4.4-4.8 3.6-2.9-1-1.5-4 1.8-2.8-2.4-4.3-4.6-3.5 4.3-3.3-1-9 2-.6-.3-.3-.2-1.4-5.3.6-4.2-3.8-3.6.6-1.9-2.2.1-.2-2.1.2-5.2-3.2-1.6 2.7-3.7-.5-2.5-3.4-2.2 2.4-5.8-6.2-2.8-4.3 3.3-2.1-2-2.6 1.9-4.6-1.3-5.4 2.2-3.9-3-3.6-1.1 3.4-2.1-1 .5-2.4-1.7-.8 1.2-3.5 2.8-2.1-1.5-3.9-.2-4 2.5-1.7h-.6l-2.7-4.6-2.5 1-.8-1.6-5.9 1.4-5.8-2.1.9-2.5-3.7-2.6-4.3-.1-1.4-3.9-5.7.3-1.6-2-5.5 2.1-3.4-4.4 6 1.1-.2-2.4 2.4-.2 1.1 1.6 3.2-1.2.8-1.9-.3-1.8 2.8-2.8h3.3l1 1.6 4.7-.8 1.5-2.8 4 .6 2.4-1.8.6-3.9 4.6.8 2.1 1.1.8-2.6 1.9 2.2 3.5.4.3-.2 4.2 3.5.1 1.9 4.6-1.6 2.6 2.1 2.1-1.3 1.6 1.6 2.3.1.7 2.3 4.9.1 4.3-1.2 1.2 2.4 5.5-5.2 3-.3 2.1 2.7 1.9-4.6 3-.3 1.3 2.2 2.1-2.3 4-.5 1-5.7 6.7-5.3.1-.7.2.6 2.8.7-.4-4.3 1.5-1.9 1.4 4.1 1.3-.3 2.1 4.8 6.7 1.7 2.4-3.1 4.1 1.8.3 4-5.9 4.9 7.3 1.5 1.1-3.2 4.8-.9z"/><path fill="#d4dce1" stroke="#f4f3f0" stroke-miterlimit="10" stroke-width=".501" d="m361.9 114.5 1.3 2.8 1.8.2.3 2.8-3.3 1.7 4.2 4 3.3-1.4 2.3 2.1 1.8-.5 2.7 4.7 3.6-.5.2 2.9 2.5 3.5 1.3-1.1-.4-2.2 5.2-.2 3-2.5 1.1 2.1h1l2.1 2-2.1 3.6 5.6 5.6 1.2.6v1.9l-3.5 2.3 2.6 3.6 10.2 4.7 2.9.2 1.9-2.1 1.9 1.2-2 2 .2 1.5 1.7.1 1.6 5.2-.5 3.1 3 6 1.6 6.2-.1 1.5-4.8.9-1.1 3.2-7.3-1.5 5.9-4.9-.3-4-4.1-1.8-2.4 3.1-6.7-1.7-2.1-4.8-1.3.3-1.4-4.1-1.5 1.9.4 4.3-2.8-.7-.2-.5-.1.6-6.7 5.3-1 5.7-4 .5-2.1 2.3-1.3-2.2-3 .3-1.9 4.6-2.1-2.7-3 .3-5.6 5.2-1.1-2.4-4.3 1.2-4.9-.1-.7-2.3-2.3-.1-1.6-1.6-2.1 1.3-2.6-2.1-4.6 1.6-.1-1.9-3.7-3.2-.5-.3-.3.2-3.5-.4-1.9-2.2-.8 2.6-2.1-1.1-4.6-.8-.6 3.9-2.4 1.8-4-.6-1.5 2.8-4.7.8-1-1.6h-3.3l-2.8 2.8.3 1.8-.8 1.9-3.2 1.2-1.1-1.6-2.4.2.2 2.4-6-1.1-3.5-1.9 1.2-2.1-4.9-1.8-2.8-3.6-1.9-4.4-3-.1-2.9 2.4-2.4.4-3.6-4.4-3.9.6v-5.3l3.3-.1.5-2.3 3.5.3 1.6-1.6-.1-3.9 4.5.1.4-4.1 1.2-.2-.5-3.3-4.6-.1-2.5-3.1h-1.3l.6-3.2-2.2-1.5 1.5-2.9 3.3-1.2 2.5-.7 1.7 1.1 1.1-1.8-2.5-2.7 5.4-1.9 2.3-2 4.3.4 1.4 2 2.2.3-.5 3.4h2.6l1.2-1.7 1.7 1.5.8-.7.3.3 2 2.1 1.9-1.5-.7-3.1-1.6.1-.2-2.3 3.4-.5 2.6-.3 1-2.2 1.4-.5.1-2.9 2.3-2.9 5.4 1.2 4.7-.5 4.7-1 4.1-.5 3.5-4.4 2.2-.6 1.9-.6v-.3l2.7-2.1 2-3.7.9 1-1.1 1.9-1.4 1.9.9 2.4 1.3-.4.5-2 2-.1.5-1.7 2.8-.7-.5-2.7 1.4-.2 1.3 1.9 2.5-.6.6-2 1.5.6.1 1 3.8-.1.5 1.2 3.4-.2 1.2-3.2zM71.3 411.1v1l-.5 4.7 4.3-.8 3.4 1.8.4 2.7 2.4 1.4.6 3.4 3.1 4.1 1.1.3v1.4l1.5-.1 1.1.9-1.1 1.3 1.6 2.4 4.8-.7-.6-3.3 1.4-.5 1.4 1.3 1.4-.7 1.5.2 3 2-.4 3.2 1.5.8 2.3-3 1.9 2.4 2.4-.2 4.8.2 2.7-3.1-1.3-1 3.9-2.1-.1-1.6h1.8l.4-1.3-1.8-.6.4-1.5-2-.9.1-2.9.2-.2.1-1-1.4.7-3.5-1.1-1.1-1.2-.8-.9.2-1.4 2.7-.3.1-1.8-1.6-.2 1-2.2v-1.3l-1.5-.2v-1.5l-1.9 1-1.6-.9-1.1-1.2-3.8-.3-2.2-2.4-5.2.2-1.7 2.4h-2.7l-1.8 2-4.4 1.3-2.3-.5-2 2-2.6-1.5-1.7.7-1.8-1.4zm126.4-2.1-1.2-1.1 1.5-2.7v-3.1l2.2-.7.4-2.4-1.9-.3 1.2-2.3-1.7.3.2-3.2h-2.1l-.2-.6-.7-1.7-.8-6.7 1.2-.1v-2.9l-3.1-1.2 2.3-3 5.3-.3.7 2.2 1.7-.4.2-3.5 7.7 1.3 2.1 3.2.3-.1 5.1-1.5.5-3.5-1.7-1 1.5-3.4 5.2-.2.8-1.5 3.9-2v-4.7l1.3-3.4 4.3 2.5 3.5-1 1.8-1.5 6.6-7.8 1.2 1.2 2.5-.4 1.8 2.1 4.7 1.2.3 3 2.7.2v2.6l2.5.1 1.4 2.5 4 .2 2 1-.3 5.1 5 2.7.4-3.2 2.1.6.1 1.1.4-.9 1.2.3 2.1-.9-2.8-2.2-3.3-1.3v-2.5l3-.7 2.1-1.2 6.5.5 1.3 2.1 2.9.3 1.8-1.3 2.6 1.1-1.1 1.7 2.2 2.1 3.6.6 1.5-5-1.4-2.5 1.3-2.2-1.2-2.3 4.6-4.1 3.3 1.3-1 2.3 1.9 1.7 1.4 1.3 2.5 3.3 1.9-2.2 2.6 1.4.4-.4 6.7-1.9 2.4 1.7 4.1-1.6 4 3.7 5 2.1 1.2 2.6-1.8 2.3 5.7 5.3-.8 1.7 2.8 3.6 8 5.1 1.2-1.7 2.2 1.4-1.3 2.6 2.7 1.9-2.2 6.7-4.1 2 .6 4 4.4 1.2 2.7 5.5 3.3 2.8v3.5l1.1 3.9 4.1.9 1.9 4.6 7.1-1.6 3.5 3.2.5 2.7 5.3 3.7 1.3 3.3 3.1 1.6h3.4l3.9 3.2.5 4.7 4.1 2.4.8-1.7 3.3-.2 3.6 4.8 2.6.2 5.2 6.3-1.7 3.4 1.5 4.8-4.1 8-4.1-2.5h-3.3l-2.4-2.1-4.4 2 1.2 3.6-1.3 6.8-6 5.2-5.5.1-6.8 1.8-2.3 2.9-5.4.8-4.8 3.9-.2 3.2 5 4v3.9l-.2.3h3.5l3.6 6.4-1.4 2.8-2.1.3-1.3 3.5 2.9 1.7 1.9-1.7 3.7 4-2.1 4.4v6.1l-1.9 2.3-.9-2.5-3.3.8-2.9-4.3h-3.4l-.4-2 1.6-1.2-1.9-4.2-3.4-1.4-5.7 1-.6 2.5h-3.1l-3.8-3.5-7.2.3-.5-.6 1-1.8-.3-1.3-5 3 2.7 5.7-15.3-1.3-2.8 2.8-5.5-.6-4 1.2-2.1 3.6-7.2-.6-1.6 1.8 2.2 2.9-5.3.2-.7 2.1-3.9.1.3-1.9-4.2.1-1 2.6-6.7-.1-.1-3.3-1.9-1.8-3.9.1.6-2.3 2.9-.3-2.4-1.7-4.2 1.6-7.7-3.9-1.8 3-4.5-.7-.6-2.3-1.7.3-.2 5.4 2.6 2-2.1 4.3-2.1.4-5.2 6.1-5.8-.9 2.8-2-.7-1.1 1.4-2.7-2.5-.7-1.4 1.8h-2.6l-1.6-3.4 2.3-1.4-2.6-2.4-3 .2-.9-3.4 2.3-2.4 1.6-.2 1.2-4.7 2.5-.5.3-1.8-1.2-.7.2-3-1.4-.1.1-1.2 1.8-1.2-.1-1.7-2.6-1.3 1.6-1.7v-2.8l-.8-2.2 1.3-.8 1.3-2.6-.4-5-1.1-.1-.8-3.2-1.8-3.9.1-3.7-3.8-4.4 2.5-3.2.3-2.5 3-.4 1.4.9 2.8-.8 2.3-1.6.3-2.2 3 .9-.1-2.8-1.3-1.2 1.6-1.6-3.2-3.1 1.1-2.6 2.5.2 1 2.4 1.7-.1.1-2 1.3.1v1.6l3.2-.2-.5-1.2-.4-2.7-2.2-1 .3-2.4 2.2-2.7-.9-3.1-1.7-.2-.8-1.8 2.3-.3-.6-3.3-8.4-4.1-1.8-4.1 2-.4-.9-2.2-5-3.4-.4-2.6 1.5-.9-.4-3.3-1.7-.1.1-3.3-3.1-.5-.7 1.4-3.6 1.7-1.4-2-3.3.3v-.3l-2-1.4-1.1.6-4.2-.8-3.3-2.3-1 .8-1.1-1.4-2.9-.1-.9-2.5 2.2-2.7-2.1-3.5 2.2-.4-.2-2.7-6.2-.3-5.4.7-3.4 4z"/><path fill="#d4dce1" stroke="#f4f3f0" stroke-miterlimit="10" stroke-width=".501" d="m186 419.7.4-3.3 2.1-.2.3-3.2-3.3 1.2-.8-2.2-4.7.4-1.6-3.4 1.8-.8-.5-1.7-5.5.8.4.5 1.5 4.1-2.6 1.5-4-4.1h-3.2l-.3-.2-4.2 2.3-.6 3.9.1 1.9 2.7-.6 1.4 2.3 2.2-.8-.2.5 2.9-.5.1 2.1-2.1.2.7 1.4-2.2.4-.9-1.2-2.2 1.6 1.2 4.1 4.6.3-2.5 3.2-1.6-.1-1.3 4.1-.9 4.7.2.9-.6-.3-2.7 2 .5 2.6-4.1 2.1-2.7 4.4-2.1 5.4-3.5.9-.7 2.3-1.9 2.5-3.2 2.7-3.8 2.2-.7 8.3-1.1.7-.9 2.7-1.5 2.3.1 4.9-1.5.3-.4 4-6 8.4.4 3 1.7 5.1-1 1.8-1.8 5.5-.6 5.6-1.2 3.1 2.9 5.4 1.6 1.5 3.3-1.1.7 1.1-1.7 2.3h3.8l4.2-2.9 3.9-.3.9 4.3 9.6-3.1 4.4-3.2 1.8.7 3.1 3.6 4.3-.6 3.4-.5v-2.3l1.1-1 3.2 1.7.5-2.3.3-3.6-2.8 1-2.6 2-3-1.2.4-2.9 3.1-4.1 4.2-1.2.4 2.8 2.1-.4.5-1.8 2.1 2 1.6-.2-.9 2.4h-2.4v2.1l5.1 1.3 1.2-3.8 1.9.7v3.6l7.6-1.8-2.1-3 1.2-.4 6.3 4.5 4.1.3 16.2 7.7 6.4.1 5.6-3.6.2 4.1 3 .2 3.8-1.1.2.4 2.3-2.4 1.6-.2 1.2-4.7 2.5-.5.3-1.8-1.2-.7.2-3-1.4-.1.1-1.2 1.8-1.2-.1-1.7-2.6-1.3 1.6-1.7v-2.8l-.8-2.2 1.3-.8 1.3-2.6-.4-5-1.1-.1-.8-3.2-1.8-3.9.1-3.7-3.8-4.4 2.5-3.2.3-2.5 3-.4 1.4.9 2.8-.8 2.3-1.6.3-2.2 3 .9-.1-2.8-1.3-1.2 1.6-1.6-3.2-3.1 1.1-2.6 2.5.2 1 2.4 1.7-.1.1-2 1.3.1v1.6l3.2-.2-.5-1.2-.4-2.7-2.2-1 .3-2.4 2.2-2.7-.9-3.1-1.7-.2-.8-1.8 2.3-.3-.6-3.3-8.4-4.1-1.8-4.1 2-.4-.9-2.2-5-3.4-.4-2.6 1.5-.9-.4-3.3-1.7-.1.1-3.3-3.1-.5-.7 1.4-3.6 1.7-1.4-2-3.3.3v-.3l-2-1.4-1.1.6-4.2-.8-3.3-2.3-1 .8-1.1-1.4-2.9-.1-.9-2.5 2.2-2.7-2.1-3.5 2.2-.4-.2-2.7-6.2-.3-5.4.7-3.4 4-6.1-.8-.1 1.7 2.1 2.5-3.3 1.3-3.8-.4-4.9 6.7zm156.6-55.5 2-3.3 4.2-2 1.7-3.1 3.5-.4 5.7 1.4 1.8-3.4 5.9-.6.4 3.4 5.7-.6 1.1-6.1 7.1.6 3.4-6.1 3.7 1.3 2-4.3 3.5 3.2 2.5-7 1.7 1.2 5.1-.7 7.9.7 2.4-.2-1-4.5 4.3-1.9 4.2 2.1 8.9-4.5.5-3.7 3.4 2.2 3.6-1.3 1-2.2-4-3-3.4-.8 9.4 3.6 5.1 3.7 4.8-1.7 6.9-19 1.7-7.2-2.3-14.9-14.3.5-6.5 6.2 4-4.8-3-.2-3.5 4.3-5.1-.2-.8-2.2-9.6 6.6-9-3.5-4.6 3.9.6 4.4-1.3 3.3-.9-4.5-4.5 1.8-8-1.1-6.5.7-5.5-4.4-4.8 3.6-2.9-1-1.5-4 1.8-2.8-2.4-4.3-7.5-5.4-1.8 2-4.7-2-3.3 2.5-3.2-2.1-2.7 4-6.9-1.6-1 3-9.9 1.1.3 4.6-2.8 1.8 1.9 8.6-1.5.2 1.8 5.6-.8 2 17.7 6.3 3 .6-15.5-2.7 18.1 2.3.5 1.3 6.4.8.3 3 6.6 1.8.8 4.9h-7.4l-2.3 3.7-5.2-.8v2.4l-3.9-.1-1.3 2.8 1.7 4.8 2.4.4v.8l-2.7 2.5-3.2-.4-2.3 2.7v2l-4.3.8-1.1-4.7-5.1 1.8-3 2.7 1.1 2.4 2.9-.4 1.6 3.1-3.5.2.8 2.5 3.8 3.7 5.2 2.1 4.3 4.6-.1-1.3-3.6-4.5m-164-216.7 2.7 3.3 9.6 1.5 3.2-.9 2-1.5 7.2.1 6.4 7.6 1.9 1.5 4 5.8 2.2.6-.1-.3 7.4 3.7.3 2.6 1.5.8.7 2.6 1.9 2 1.1-2.2 1.2-.1 1.3 2.4h2.9l.7-1.2 2.3-1.6 3.8 4 3.6.1.4-1.6 2.1.2-.1-.4 3.4-.2 3.7 3.5 6.3.8v-.5l3.9-.4 3.6 4.4 2.4-.4 2.9-2.4 3 .1 1.9 4.4 2.8 3.6 4.9 1.8-1.2 2.1 3.5 1.9 3.4 4.3 5.5-2 1.6 2 3.7-.3-.5 2.6-2.6-.1-1.2 3.3-8.4 5.6-1.1-1.4-2 .2-2.2-1.4-2.6 1-.6-1.8h-4.1l-2.4 4.7-5.2-.8-.4-.4.1.5-2.5.7-.4 3.6 1.7 3.8h1.5l4.3 6.2 1.8-.8.4 2.3-2.2 1 2.7 4.1-2 .5-.3 3.1 6.4 4.6-.3 2.4-3.5-.3 1.2 3.2 2.2.5v2.4l.3.2-.3.5-2.6.9.7 2.5h1.7l-.5 2-4 2.4.4 2.7-3-.6-2.1 2-3-.7v.2l-3.9-.9-1.3 3-3.4-.8-.6 2.6 3.3 1.6.1 3.8-2.4 2.1v4.8l2.3 1 1.6 6.4-1.9.9-.6 3.5-4.6.9-4.9-2.1-2.1 4.5-3.5 2.8-3.8-.7-2.2 3.1-4.2.1-4.5 3.2h-.1l-.6-1.6-2.4.2-.7 1.8-1.1-.9-3.7 1.7 1.7 2-1.5 2.4-4.5-1.6-2.8-2.2v-2.7l3.3-1.4-.1-4.4h-1.2l-.6-2.7 2.9-2.7-.2-2.8-3.3-.6-5.8-.4-.6-.5-.5.2-2-.5.7-6.3 2.5-.7-.9-4.9-3.2-.1-1.1-4.3-2.3-.3-.8-3.3-1.1 1.2-2.1-.5-.2-5 1.1-.7-1.8-2.4-.4-1.8-3-1.1-2.3 1.2-1.2-3.7-5.1-.2-4.3 1.9-.9-.4 1.3-2.4-3.8-2.4h-3.4l-7.2-.7.1 3.8 1.2.6.4 2.8-.1.2-3.2-.3-1.2 2.3-5.3-.6-3.2 3.5-4.2.1-3-.1-3.2 1.7-2.4-3.5.7-.1 4.8-2.2-.5-3.3-3.9 1.4-1-4.5 1.3-3.7 1.6-1.5-2.2-4.5-4.9 1.5-3.3-.5-1.5-5.1-4.1.2-1.4 2.1 1.6-.2-.6 3.4-3.1.3-6.2 4.9-.2.2-2.2-.6-1.7-1.7-2.1-7.3 2.8-1.7-.6-4.4-3.4.6-2.4-3.3-5.8-.4-.3-3.4 1.1 1.1 1.2-.2.8-6.3-.4-4 6.2-10.4-.6-7.6-.5-2.1 1.2-2.2-.1-3.3 1-1.7.2-3 2.4-.6-.3-1-11.5-.6-1.2-1.3 1.3-2.4-.1-5.4 2-1.6 1.3.5 1.8-1.7-2.1-2.2 3.9-4 4.4-2.7 8.7.2.8.8 6.7-2.7 7.1.6 3.4-1.2 4.9.7.7 2.9 2.5 1.1 1.3 2 1.3 1.9.8 2.2v1.5l-4.6.8v2.7l1.5 1.6 1.6-1.7 3.1 3.8 2.4-.2 1.7-2.5.6-4.2-1.2-1-.9.9h-1.3l.1-3.2 2.3-3.4 2 .4 1.6 2.6 4.9.6 2.1 1.2.3 1.8-2.6 2.2.2 4.2v1.3l.9-2.8v-1.9l2.1-2.2-.1-3.2-1.7-2.3-2-4.8 2.6-5.2.6-3.9 2.9-4.1z"/><g fill="none" stroke="#4099da" stroke-linecap="round" stroke-miterlimit="10" stroke-width="4" clip-rule="evenodd"><path d="m182.1 86.9 12.2 24.8m75.4 17.6-8.2 16-28.1 12.7m33-11.1-4.9-1.6m64.4 4.4L313.3 175l-5 52.4m94.2-63.4v23.7l12.1 2.8-13.7 9.3-10.5 19.9 3.3 7.1m-19.8-9.9 16.5 2.8m42.4 25.9h5m-131.7.5 39.7 223.1m36.9 17.7-20.4-3.9-20.4-13.2m-100.3 19.8-9.3 1.7-2.8 37.4M132.6 499l2.7-13.8m4.4-7.7 28.7-45.2-3.9-25.9 3.3-11.5-81.5-87.1-6.6-2.7m74.9-93.7L139.2 234l13.2-25.9-2.2-25.3-33.1-1.1L85.7 304"/><path d="m113.8 218 6.1 32-17.1 15.4m-12.1 16-11 19.3m44.6-.6 21.5 16.5-1.7 17.1m7.2-85.9 9.9 11.5.6 10m36.9-120.7c0 1.7-.6 290.9-.6 290.9l22-5.5M181 450l-6 3.3m29.7-305.8 39.7 239.7m-11-121.8 15.9-19.8"/><path d="m209.7 170.1-19.8 59.5 8.8 3.8m-16.6 153.8-9.9 9.9-4.4-2.2m6.6 20.3-1.7-14.3-.5-3.8"/><path d="m175 400.4-10.5 6 7.7 9.9-10.4 21.5m-47.4-67.2-18.2 18.2-17.1 2.8-4.4-2.8m263.9-79.3-6.1 11.5-46.2 3.3m73.8 5.6-29.2 6H327l-18.2 16.5"/><path stroke-linejoin="round" d="m228.4 286.3-11.6 18.2 14.4-8.8M203.6 90.8l1.1 7.7"/><path d="m290.5 374.5 26-2.8 22.4 13.6-6.4 39.5"/></g><path fill="none" stroke="#e85757" stroke-linecap="round" stroke-linejoin="round" stroke-miterlimit="10" stroke-width="4" d="m119.3 169.5-3.3 11.1m94.2-10-44 18.8m-5 52.9-9.4 4.9m38.6 57.3 11.6 17.1 22.6 9.9 60.6-7.2-17.7-26.4h48M251 246.1l53.4-1.6-28.6 6.6zm50.7 113.5-10.5 13.2m-66.6-41.3 19.2 56.2-8.2 22.6-11.6 21.5m-84.3 45.7-4.9 6.6m92 45.2-1.7 2.7m101.4-39.1-24.3-4.4m-28.1-65 24.8-1.6 22.1 32.5 20.9 15.9m39.1-8.2 1.7 22.6m-11.6 1.6-3.9 8.8" clip-rule="evenodd"/><path fill="none" stroke="#644c76" stroke-linecap="round" stroke-miterlimit="10" stroke-width="4" d="m204.8 100.6 16.6 24.8 9.9 32.5L212 170m-69.4-71.6 7.7 20.4 14.3 13.7 25.9 2.8 6.1-8.3-2.2-14.8m3.8 35.8-7.7-12.7m101.4 30.3-8.3 5.5-25.3-2.2-6.6 6.6M76.9 332.6l-10.8 1.9-5.6 7.6m60.3 19.2-20.3-13.6-.4-10.8-12.8-26.3m37.5 53.9-8.4 5.2m26.8-34-2.4 3.6 8 11.6 2.8 17.6m24.7-104.2-12.4 4.4m8-68.7-2.4 16.7 2.8 6.4-6 4.4-4.3 13.2m-14.8 43.5-16 12-10.8.8 3.6 2.8m11.2-16-5.6-.4v4m43.9 90.3-5.6 2 2 4.4-5.6-1.2m36.4 61.9 1.2 12.3m-.8 18.8 12.8 15.2-3.2 15.2m160.9-287.2-10.4 7.6m-281.9 46-.8 1.9 9.6 7.2 14.4-14.7m145.7 120.6 38.3-.4 3.2-12.8-6.7-6.4 3.5-42.3 10-8 22.4-19.2m115.8-6.8-6.8 12-4.8 6.4M117.2 202.8l-2.8 13.1m301.5-27.1 4-6"/><g fill="#3b4956"><path d="M235.6 185.8h-1v-3.7h-3.8v3.7h-1v-8h1v3.4h3.8v-3.4h1zm6 0h-1v-.7c-.4.3-.7.5-1 .6s-.6.2-1 .2c-.5 0-1-.2-1.3-.5s-.5-.7-.5-1.3.2-1.1.6-1.4.9-.4 1.7-.5c.4 0 .9-.1 1.5-.1v-.3q0-.6-.3-.9c-.2-.2-.6-.3-1-.3-.6 0-1.1.2-1.5.5l-.6-.7q.75-.6 2.1-.6c.8 0 1.4.1 1.8.4s.5.8.5 1.5zm-1-1.5v-1.4h-1c-.6.1-1 .2-1.3.3-.3.2-.4.4-.4.8 0 .6.4.9 1.1.9.2 0 .4 0 .6-.1s.4-.2.5-.3.3 0 .5-.2m10.3 1.5h-1v-3.3c0-.6-.1-1-.2-1.2s-.3-.3-.7-.3c-.2 0-.5.1-.7.3-.3.2-.6.4-.8.7v4h-1v-3.3c0-.6-.1-1-.2-1.3q-.15-.3-.6-.3c-.4 0-1 .3-1.6.9v4h-1v-5.6h1v.8c.6-.7 1.2-1 1.8-1 .4 0 .7.1 1 .3s.4.5.5.8c.4-.4.7-.6 1-.8s.6-.3 1-.3c.6 0 1 .2 1.2.5s.4.8.4 1.5v3.6zm6.5-2.9c0 .5-.1 1-.2 1.5-.1.4-.4.8-.8 1.1s-.8.4-1.3.4-1-.1-1.7-.3l-.6.2h-.3v-8.1h1v2.9c.5-.5 1.1-.7 1.8-.7.8 0 1.3.3 1.7.8.2.6.4 1.3.4 2.2m-1 0c0-1.4-.5-2.1-1.4-2.1-.5 0-1.1.2-1.6.7v3.3q.6.3 1.5.3c.5 0 .8-.2 1.1-.5s.4-1 .4-1.7m6.9 2.9h-1v-.8c-.7.7-1.4 1-2 1s-1-.2-1.3-.5c-.3-.4-.4-.9-.4-1.6v-3.7h1v3.3c0 .6.1 1 .2 1.2s.4.4.8.4 1-.3 1.7-.9v-4h1zm4.8-5.6-.2.9c-.1 0-.2-.1-.4-.1s-.4 0-.6.1-.4.2-.5.3-.3.2-.5.4v3.9h-1v-5.6h1v.9l.5-.5c.1-.1.3-.2.5-.3s.4-.2.6-.2c.3 0 .4.1.6.2m6.1.7h-.7v4.8c0 .8-.2 1.3-.6 1.7s-1 .5-1.9.5c-.3 0-.7 0-1.1-.1s-.6-.2-.8-.3l.3-.8c.5.3 1 .5 1.6.5q.75 0 1.2-.3c.2-.2.4-.6.4-1.1v-.6c-.5.4-1.1.6-1.7.6-.7 0-1.3-.3-1.7-.8s-.6-1.2-.6-2.1c0-.4 0-.7.1-1.1.1-.3.2-.6.4-.9s.4-.5.8-.7c.3-.2.7-.3 1.1-.3.5 0 1.1.2 1.6.6v-.4h1.6zm-1.7 3.4v-3c-.6-.4-1.1-.5-1.5-.5-.5 0-.9.2-1.1.6s-.4.9-.4 1.5c0 1.4.5 2.1 1.4 2.1.6-.1 1.1-.3 1.6-.7m69.8 31.8c0 .8-.3 1.4-.8 1.8s-1.3.6-2.3.6h-2.6v-8h2.4c1 0 1.8.1 2.2.4s.6.8.6 1.4q0 1.35-1.2 1.8c.5.1 1 .3 1.3.6.2.4.4.8.4 1.4m-1.6-3.5c0-.5-.1-.8-.4-.9s-.8-.2-1.4-.2h-1.3v2.5h1.2c.7 0 1.1-.1 1.4-.3.4-.3.5-.7.5-1.1m.5 3.6c0-.6-.2-.9-.5-1.1s-.9-.3-1.7-.3h-1.4v2.9h2c.2 0 .4 0 .7-.1.2-.1.4-.1.6-.2.1-.1.2-.2.3-.4zm6.9-.2h-3.8c0 .6.1 1 .4 1.4s.7.5 1.3.5c.2 0 .5 0 .7-.1s.4-.2.5-.3l.6.7q-.75.6-1.8.6c-.9 0-1.6-.2-2-.7s-.7-1.2-.7-2.2c0-2 .9-3 2.6-3 1.5 0 2.3.9 2.3 2.6v.5zm-.9-.8c0-1.1-.5-1.7-1.4-1.7s-1.4.6-1.5 1.7zm5.3-2.3-.2.9c-.1 0-.2-.1-.4-.1s-.4 0-.6.1-.4.2-.5.3-.3.2-.5.4v3.9h-1v-5.6h1v.9l.5-.5c.1-.1.3-.2.5-.3s.4-.2.6-.2c.3.1.4.2.6.2m3.2 5.7c-.3.1-.6.1-.9.1-.5 0-.9-.1-1.1-.4s-.3-.7-.3-1.4v-6.1l1-.6v6.7c0 .4 0 .7.1.8.1.2.2.2.5.2.2 0 .4 0 .6-.1zm2.2-.1h-1v-4.9h-1v-.8h1.9v5.7zm.2-7q0 .6-.6.6t-.6-.6c0-.6.2-.6.6-.6.2 0 .4 0 .5.1s.1.3.1.5m6.2 7h-1v-3.3c0-.6-.1-1-.2-1.2s-.4-.4-.8-.4-1 .3-1.7.9v4h-1v-5.6h1v.8c.7-.7 1.4-1 2-1s1 .2 1.3.5c.3.4.4.9.4 1.6zM217.8 462.9c0 .8-.3 1.4-.8 1.8s-1.2.6-2.1.6c-.8 0-1.4-.1-1.9-.4q-.75-.45-1.2-1.2l.8-.5c.5.8 1.2 1.2 2.2 1.2.5 0 .9-.1 1.3-.3s.6-.6.6-1-.2-.7-.5-1q-.45-.3-1.5-.6c-1-.2-1.8-.5-2.2-.8q-.6-.45-.6-1.5c0-.7.2-1.2.7-1.6q.75-.6 2.1-.6c1.3 0 2.2.5 2.8 1.4l-.8.5c-.4-.7-1.1-1.1-2-1.1-.5 0-1 .1-1.3.4-.3.2-.5.6-.5 1s.1.6.5.8.8.4 1.6.5c.4.1.8.2 1.1.3s.6.3.8.4c.3.2.5.4.6.7.2.3.3.6.3 1m4.2 2.1c-.3.1-.7.2-1.1.2-.6 0-.9-.1-1.2-.4-.2-.3-.4-.7-.4-1.4v-3.2h-1v-.8h1v-1.8l1-.6v2.4h1.5v.8h-1.5v3.1c0 .4 0 .7.1.9q.15.3.6.3c.2 0 .5 0 .7-.1zm5.6 0h-1v-.8c-.7.7-1.4 1-2 1s-1-.2-1.3-.5c-.3-.4-.4-.9-.4-1.6v-3.7h1v3.3c0 .6.1 1 .2 1.2s.4.4.8.4 1-.3 1.7-.9v-4h1zm4.5 0c-.3.1-.7.2-1.1.2-.5 0-.9-.1-1.2-.4-.2-.3-.4-.7-.4-1.4v-3.2h-1v-.8h1v-1.8l1-.6v2.4h1.5v.8h-1.5v3.1c0 .4 0 .7.1.9q.15.3.6.3c.2 0 .5 0 .7-.1zm3.9 0c-.3.1-.7.2-1.1.2-.5 0-.9-.1-1.2-.4s-.4-.7-.4-1.4v-3.2h-1v-.8h1v-1.8l1-.6v2.4h1.5v.8h-1.5v3.1c0 .4 0 .7.1.9q.15.3.6.3c.2 0 .5 0 .7-.1zm6.1-4.8h-.7v4.8c0 .8-.2 1.3-.6 1.7s-1 .5-1.9.5c-.3 0-.7 0-1.1-.1s-.6-.2-.8-.3l.3-.8c.5.3 1 .5 1.6.5q.75 0 1.2-.3c.2-.2.4-.6.4-1.1v-.6c-.5.4-1.1.6-1.7.6-.7 0-1.3-.3-1.7-.8q-.6-.75-.6-2.1c0-.4 0-.7.1-1.1.1-.3.2-.6.4-.9s.4-.5.8-.7c.3-.2.7-.3 1.1-.3.5 0 1.1.2 1.6.6v-.4h1.6zm-1.6 3.4v-3c-.6-.4-1.1-.5-1.5-.5-.5 0-.9.2-1.1.6s-.4.9-.4 1.5c0 1.4.5 2.1 1.4 2.1.6-.1 1.1-.3 1.6-.7m6.9 1.4h-1v-.7c-.4.3-.7.5-1 .6s-.6.2-1 .2c-.6 0-1-.2-1.3-.5s-.5-.7-.5-1.3.2-1.1.6-1.4 1-.4 1.7-.5c.4 0 .9-.1 1.5-.1v-.3q0-.6-.3-.9c-.2-.2-.6-.3-1-.3-.6 0-1.1.2-1.5.5l-.6-.7q.75-.6 2.1-.6c.8 0 1.4.1 1.8.4s.5.8.5 1.5zm-1-1.5v-1.4h-1c-.6.1-1 .2-1.3.3-.3.2-.4.4-.4.8 0 .6.4.9 1.1.9.2 0 .4 0 .6-.1s.4-.2.5-.3c.1.2.3 0 .5-.2m5.7-4.1-.2.9c-.1 0-.2-.1-.4-.1s-.4 0-.6.1-.4.2-.5.3-.3.2-.5.4v3.9h-1v-5.6h1v.9l.5-.5c.1-.1.3-.2.5-.3s.4-.2.6-.2c.3.1.5.1.6.2m3.8 5.6c-.3.1-.7.2-1.1.2-.5 0-.9-.1-1.2-.4s-.4-.7-.4-1.4v-3.2h-1v-.8h1v-1.8l1-.6v2.4h1.5v.8h-1.5v3.1c0 .4 0 .7.1.9q.15.3.6.3c.2 0 .5 0 .7-.1zm8.7 39.2h-1v-6.8l-2.3 4.6h-.7l-2.3-4.6v6.8h-1v-8h1.4l2.2 4.4 2.2-4.4h1.4v8zm6.3 0h-1v-.8c-.7.7-1.4 1-2 1s-1-.2-1.3-.5c-.3-.4-.4-.9-.4-1.6v-3.7h1v3.3c0 .6.1 1 .2 1.2s.4.4.8.4 1-.3 1.7-.9v-4h1zm-2.8-7.1c0 .2 0 .4-.1.4-.1.1-.2.1-.5.1s-.4 0-.5-.1-.1-.2-.1-.4 0-.4.1-.5.2-.1.5-.1c.2 0 .4 0 .5.1 0 .1.1.3.1.5m2.1 0c0 .2 0 .4-.1.4-.1.1-.2.1-.5.1s-.4 0-.5-.1-.1-.2-.1-.4 0-.4.1-.5.2-.1.5-.1c.2 0 .4 0 .5.1 0 .1.1.3.1.5m7 7.1h-1v-3.3c0-.6-.1-1-.2-1.2s-.4-.4-.8-.4-1 .3-1.7.9v4h-1v-5.6h1v.8c.7-.7 1.4-1 2-1s1 .2 1.3.5.4.9.4 1.6zm5.9-4.8-.8.5c-.3-.5-.7-.7-1.3-.7-1.1 0-1.6.7-1.6 2.2 0 .7.1 1.2.4 1.6.2.4.7.6 1.3.6.5 0 .9-.2 1.3-.5l.6.7c-.5.4-1.1.6-1.9.6-1.7 0-2.6-1-2.6-3s.9-3 2.6-3c.9 0 1.6.3 2 1m5.7 4.8h-1v-3.3c0-.6-.1-1-.2-1.2s-.4-.4-.8-.4-1 .3-1.7.9v4h-1v-8h1v3.2c.7-.7 1.4-1 2-1q1.8 0 1.8 2.1v3.7zm6.1-2.6H291c0 .6.1 1 .4 1.4s.7.5 1.3.5c.2 0 .5 0 .7-.1s.4-.2.5-.3l.6.7q-.75.6-1.8.6c-.9 0-1.6-.2-2-.7s-.7-1.2-.7-2.2c0-2 .9-3 2.6-3 1.5 0 2.3.9 2.3 2.6zm-.9-.8c0-1.1-.5-1.7-1.4-1.7s-1.4.6-1.5 1.7zm6.8 3.4h-1v-3.3c0-.6-.1-1-.2-1.2s-.4-.4-.8-.4-1 .3-1.7.9v4h-1v-5.6h1v.8c.7-.7 1.4-1 2-1s1 .2 1.3.5.4.9.4 1.6z"/><circle cx="203.6" cy="461.7" r="2.7"/><circle cx="310.1" cy="501.1" r="2.7"/><circle cx="369.4" cy="218.9" r="2.7"/><circle cx="231.2" cy="170.7" r="2.7"/></g><path fill="#4099da" d="M47 47.2h-2.6L36 31.8v15.3h-2.1V29.7h3.3l7.6 14v-14H47zm13.5-5.6h-8.4c0 1.2.3 2.3.8 3q.9 1.2 2.7 1.2c.5 0 1.1-.1 1.6-.3s.9-.5 1.2-.7l1.2 1.6q-1.5 1.2-3.9 1.2c-1.9 0-3.4-.5-4.4-1.5s-1.5-2.6-1.5-4.9c0-4.4 1.9-6.6 5.6-6.6 3.3 0 5 1.9 5 5.6v1.4zm-2.1-1.7c0-2.5-1-3.7-3-3.7s-3.1 1.2-3.3 3.7zm11.6-5-.5 2c-.2-.1-.5-.1-.9-.1-.5 0-.9.1-1.4.3-.4.2-.8.4-1.1.6s-.6.5-1.1.9v8.5h-2.1V34.9H65v2c.5-.5.9-.8 1.2-1.1s.7-.5 1.1-.7.9-.3 1.4-.3c.6-.1 1 0 1.3.1m11.5 0L77 47.2h-2.1l-4.5-12.3h2.3l3.4 9.6 3.3-9.6zm11.9 6.7H85c0 1.2.3 2.3.8 3q.9 1.2 2.7 1.2c.5 0 1.1-.1 1.6-.3s.9-.5 1.2-.7l1.2 1.6q-1.5 1.2-3.9 1.2c-1.9 0-3.4-.5-4.4-1.5s-1.5-2.6-1.5-4.9c0-4.4 1.9-6.6 5.6-6.6 3.3 0 5 1.9 5 5.6v1.4zm-2.1-1.7c0-2.5-1-3.7-3-3.7s-3.1 1.2-3.3 3.7zm14.9 7.3h-2.1V40c0-1.3-.1-2.2-.4-2.7s-.9-.8-1.8-.8c-1 0-2.2.7-3.8 2v8.7H96V34.9h2.1v1.8c1.5-1.5 3-2.2 4.3-2.2s2.3.4 2.9 1.2.9 1.9.9 3.5zm14.3-6.3c0 1.2-.2 2.3-.5 3.2-.3 1-.9 1.8-1.7 2.4s-1.8 1-2.9 1c-1 0-2.3-.2-3.7-.6l-1.4.4h-.7V29.7h2.1v6.4c1.2-1.1 2.5-1.6 3.9-1.6 1.7 0 2.9.6 3.7 1.7s1.2 2.8 1.2 4.7m-2.2.1c0-3.1-1-4.7-3.1-4.7-1.2 0-2.3.5-3.5 1.6V45c.8.5 1.9.7 3.3.7q1.5 0 2.4-1.2c.6-.8.9-1.9.9-3.5m14.3 6.2h-2.1v-1.5c-.8.6-1.5 1.1-2.1 1.4s-1.3.5-2.1.5c-1.2 0-2.1-.4-2.8-1.1s-1-1.6-1-2.8c0-1.4.4-2.4 1.3-3s2.1-1 3.6-1.1c.8-.1 1.9-.2 3.2-.3v-.6c0-.9-.3-1.5-.8-1.9s-1.2-.6-2.2-.6q-2.1 0-3.3 1.2l-1.2-1.5c1-.9 2.6-1.4 4.6-1.4 1.8 0 3.1.3 3.9 1 .8.6 1.2 1.8 1.2 3.3v8.4zm-2.1-3.3v-3c-.2 0-.6 0-1 .1-.4 0-.8.1-1.1.1-1.3.1-2.2.3-2.9.7-.6.4-1 1-1 1.8 0 1.4.8 2.1 2.3 2.1.4 0 .8-.1 1.3-.3s.8-.4 1.1-.6c.4-.2.8-.5 1.3-.9m15.7 3.3h-2.1V40c0-1.3-.1-2.2-.4-2.7s-.9-.8-1.8-.8c-1 0-2.2.7-3.8 2v8.7H136V29.7h2.1v7c1.6-1.5 3-2.2 4.3-2.2 2.6 0 3.8 1.6 3.8 4.7zm13.6 0h-2.1V40c0-1.3-.1-2.2-.4-2.7s-.9-.8-1.8-.8c-1 0-2.2.7-3.8 2v8.7h-2.1V34.9h2.1v1.8c1.5-1.5 3-2.2 4.3-2.2s2.3.4 2.9 1.2.9 1.9.9 3.5zm13.2-5.6h-8.4c0 1.2.3 2.3.8 3q.9 1.2 2.7 1.2c.5 0 1.1-.1 1.6-.3s.9-.5 1.2-.7l1.2 1.6q-1.5 1.2-3.9 1.2c-1.9 0-3.4-.5-4.4-1.5s-1.5-2.6-1.5-4.9c0-4.4 1.9-6.6 5.6-6.6 3.3 0 5 1.9 5 5.6v1.4zm-2.1-1.7c0-2.5-1-3.7-3-3.7s-3.1 1.2-3.3 3.7zm14.9 7.3h-2.1V40c0-1.3-.1-2.2-.4-2.7s-.9-.8-1.8-.8c-1 0-2.2.7-3.8 2v8.7h-2.1V34.9h2.1v1.8c1.5-1.5 3-2.2 4.3-2.2s2.3.4 2.9 1.2.9 1.9.9 3.5zm19.4 0H203V46c-1.2 1.1-2.5 1.6-3.9 1.6-1.6 0-2.9-.6-3.7-1.7-.8-1.2-1.2-2.7-1.2-4.7s.5-3.6 1.4-4.8 2.2-1.8 3.8-1.8c1.3 0 2.6.4 3.7 1.2v-6h2.1zm-2.2-3v-6.6c-1.2-.8-2.3-1.2-3.4-1.2q-1.5 0-2.4 1.2c-.9 1.2-.9 2-.9 3.6 0 3.1 1 4.7 3.1 4.7 1.3-.2 2.5-.7 3.6-1.7m15.5-2.6h-8.4c0 1.2.3 2.3.8 3q.9 1.2 2.7 1.2c.5 0 1.1-.1 1.6-.3s.9-.5 1.2-.7l1.2 1.6q-1.5 1.2-3.9 1.2c-1.9 0-3.4-.5-4.4-1.5s-1.5-2.6-1.5-4.9c0-4.4 1.9-6.6 5.6-6.6 3.3 0 5 1.9 5 5.6v1.4zm-2.1-1.7c0-2.5-1-3.7-3-3.7s-3.1 1.2-3.3 3.7zm11.6-5-.5 2c-.2-.1-.5-.1-.9-.1-.5 0-.9.1-1.4.3-.4.2-.8.4-1.1.6s-.6.5-1.1.9v8.5h-2.1V34.9h2.1v2c.5-.5.9-.8 1.2-1.1s.7-.5 1.1-.7.9-.3 1.4-.3c.6-.1 1 0 1.3.1m18.7 12.3h-10.9V29.7h10.9v2H238V37h7.9v2H238v6.2h8.7zm13.2 0h-2.1V40c0-1.3-.1-2.2-.4-2.7s-.9-.8-1.8-.8c-1 0-2.2.7-3.8 2v8.7h-2.1V34.9h2.1v1.8c1.5-1.5 3-2.2 4.3-2.2s2.3.4 2.9 1.2.9 1.9.9 3.5zm13.2-5.6h-8.4c0 1.2.3 2.3.8 3q.9 1.2 2.7 1.2c.5 0 1.1-.1 1.6-.3s.9-.5 1.2-.7l1.2 1.6q-1.5 1.2-3.9 1.2c-1.9 0-3.4-.5-4.4-1.5s-1.5-2.6-1.5-4.9c0-4.4 1.9-6.6 5.6-6.6 3.3 0 5 1.9 5 5.6v1.4zm-2.1-1.7c0-2.5-1-3.7-3-3.7s-3.1 1.2-3.3 3.7zm11.6-5-.5 2c-.2-.1-.5-.1-.9-.1-.5 0-.9.1-1.4.3-.4.2-.8.4-1.1.6s-.6.5-1.1.9v8.5h-2.1V34.9h2.1v2c.5-.5.9-.8 1.2-1.1s.7-.5 1.1-.7.9-.3 1.4-.3c.6-.1 1 0 1.3.1m13.3 1.7h-1.4V47c0 1.7-.4 2.9-1.3 3.7q-1.35 1.2-4.2 1.2c-.8 0-1.5-.1-2.3-.3s-1.4-.4-1.8-.7l.7-1.7c1 .7 2.2 1 3.4 1s2-.2 2.6-.7.8-1.3.8-2.4v-1.2c-1.2.9-2.4 1.3-3.7 1.3-1.6 0-2.8-.6-3.6-1.7s-1.2-2.7-1.2-4.6c0-.8.1-1.6.3-2.3s.5-1.4.9-2 .9-1.1 1.6-1.5 1.5-.6 2.5-.6c1.2 0 2.3.4 3.4 1.3v-.9h3.4v1.7zm-3.6 7.4v-6.6c-1.2-.8-2.3-1.2-3.2-1.2-1.1 0-1.9.4-2.4 1.3s-.8 2-.8 3.2q0 4.5 3 4.5c1.2.2 2.4-.3 3.4-1.2m9.1 3.2h-2.1V36.6h-2.1v-1.7h4.2zm.3-15.4c0 .8-.5 1.3-1.4 1.3s-1.4-.4-1.4-1.3c0-.8.5-1.3 1.4-1.3.5 0 .9.1 1.1.3s.3.5.3 1m13.1 9.8h-8.4c0 1.2.3 2.3.8 3q.9 1.2 2.7 1.2c.5 0 1.1-.1 1.6-.3s.9-.5 1.2-.7l1.2 1.6q-1.5 1.2-3.9 1.2c-1.9 0-3.4-.5-4.4-1.5s-1.5-2.6-1.5-4.9c0-4.4 1.9-6.6 5.6-6.6 3.3 0 5 1.9 5 5.6v1.4zm-2.1-1.7c0-2.5-1-3.7-3-3.7s-3.1 1.2-3.3 3.7zm19.5-5L329 47.2h-1.8l-3-7.1-3 7.1h-1.8l-3.2-12.3h2.1l2.2 9.4 2.9-6.9h1.7l2.9 6.8 2.2-9.3zm12 6.7h-8.4c0 1.2.3 2.3.8 3q.9 1.2 2.7 1.2c.5 0 1.1-.1 1.6-.3s.9-.5 1.2-.7l1.2 1.6q-1.5 1.2-3.9 1.2c-1.9 0-3.4-.5-4.4-1.5s-1.5-2.6-1.5-4.9c0-4.4 1.9-6.6 5.6-6.6 3.3 0 5 1.9 5 5.6v1.4zm-2.1-1.7c0-2.5-1-3.7-3-3.7s-3.1 1.2-3.3 3.7zm14.9 7.3h-2.1V40c0-1.3-.1-2.2-.4-2.7s-.9-.8-1.8-.8c-1 0-2.2.7-3.8 2v8.7h-2.1V34.9h2.1v1.8c1.5-1.5 3-2.2 4.3-2.2s2.3.4 2.9 1.2.9 1.9.9 3.5zm13.6 0h-2.1V46c-1.2 1.1-2.5 1.6-3.9 1.6-1.6 0-2.9-.6-3.7-1.7-.8-1.2-1.2-2.7-1.2-4.7s.5-3.6 1.4-4.8 2.2-1.8 3.8-1.8c1.3 0 2.6.4 3.7 1.2v-6h2.1v17.4zm-2.2-3v-6.6c-1.2-.8-2.3-1.2-3.4-1.2q-1.5 0-2.4 1.2t-.9 3.6c0 3.1 1 4.7 3.1 4.7 1.3-.2 2.5-.7 3.6-1.7m15.5-2.6h-8.4c0 1.2.3 2.3.8 3q.9 1.2 2.7 1.2c.5 0 1.1-.1 1.6-.3s.9-.5 1.2-.7l1.2 1.6q-1.5 1.2-3.9 1.2c-1.9 0-3.4-.5-4.4-1.5s-1.5-2.6-1.5-4.9c0-4.4 1.9-6.6 5.6-6.6 3.3 0 5 1.9 5 5.6v1.4zm-2.1-1.7c0-2.5-1-3.7-3-3.7s-3.1 1.2-3.3 3.7zm-250.7 558h244.7v23.2H131.1z"/><path fill="#e85757" d="M441.76 621.224h-65v-23.2h65z"/><path fill="#644c76" d="M33 597.9h97.2v23.2H33z"/><path fill="#3b4956" d="m37.9 556.4-.2.9c-.1 0-.2-.1-.4-.1s-.4 0-.6.1-.4.2-.5.3-.3.2-.5.4v3.9h-1v-5.6h1v.9l.5-.5c.1-.1.3-.2.5-.3s.4-.2.6-.2c.2.1.4.1.6.2m5.3 3.1h-3.9c0 .6.1 1 .4 1.4s.7.5 1.3.5c.2 0 .5 0 .7-.1s.4-.2.5-.3l.6.7q-.75.6-1.8.6c-.9 0-1.6-.2-2-.7s-.7-1.2-.7-2.2c0-2 .9-3 2.6-3 1.5 0 2.3.9 2.3 2.6zm-.9-.8c0-1.1-.5-1.7-1.4-1.7s-1.4.6-1.5 1.7zm6.4 3.3h-1v-.7c-.4.3-.7.5-1 .6s-.6.2-1 .2c-.5 0-1-.2-1.3-.5s-.5-.7-.5-1.3.2-1.1.6-1.4.9-.4 1.7-.5c.4 0 .9-.1 1.5-.1v-.3q0-.6-.3-.9c-.3-.3-.6-.3-1-.3-.6 0-1.1.2-1.5.5l-.6-.7q.75-.6 2.1-.6c.8 0 1.4.1 1.8.4s.5.8.5 1.5zm-.9-1.5v-1.4h-1c-.6.1-1 .2-1.3.3-.3.2-.4.4-.4.8 0 .6.4.9 1.1.9.2 0 .4 0 .6-.1s.4-.2.5-.3.2 0 .5-.2m4.8 1.6c-.3.1-.6.1-.9.1-.5 0-.9-.1-1.1-.4s-.3-.7-.3-1.4v-6.1l1-.6v6.7c0 .4 0 .7.1.8.1.2.2.2.5.2.2 0 .4 0 .5-.1zm2.3-.1h-1v-4.9h-1v-.8h1.9v5.7zm.1-7q0 .6-.6.6t-.6-.6c0-.6.2-.6.6-.6.2 0 .4 0 .5.1s.1.3.1.5m5.6 5.5c0 .6-.2 1-.7 1.3-.4.3-1 .4-1.6.4-.4 0-.9-.1-1.3-.2s-.7-.4-.9-.8l.8-.5c.3.5.8.7 1.4.7.9 0 1.3-.3 1.3-.9 0-.2-.1-.4-.3-.5s-.6-.2-1.2-.4c-.3-.1-.5-.1-.7-.2l-.6-.3c-.2-.1-.3-.3-.4-.5s-.1-.4-.1-.7c0-.6.2-1 .6-1.3s.9-.4 1.5-.4c.4 0 .8.1 1.2.2.4.2.7.4.9.7l-.8.5c-.3-.4-.7-.7-1.3-.7-.3 0-.6.1-.8.2s-.4.3-.4.6v.2c0 .1 0 .1.1.2l.1.1.1.1c.1 0 .1.1.1.1s.1 0 .2.1h.6c.2.1.3.1.4.1s.2 0 .4.1.3.1.4.1.2.1.3.2.2.1.3.2.1.2.2.3.1.2.2.3zm2.7 1.5h-1v-4.9h-1v-.8h1.9v5.7zm.1-7q0 .6-.6.6t-.6-.6c0-.6.2-.6.6-.6.2 0 .4 0 .5.1s.1.3.1.5m6 4.5h-3.9c0 .6.1 1 .4 1.4s.7.5 1.3.5c.2 0 .5 0 .7-.1s.4-.2.5-.3l.6.7q-.75.6-1.8.6c-.9 0-1.6-.2-2-.7s-.7-1.2-.7-2.2c0-2 .9-3 2.6-3 1.5 0 2.3.9 2.3 2.6zm-.9-.8c0-1.1-.5-1.7-1.4-1.7s-1.4.6-1.5 1.7zm5.3-2.3-.2.9c-.1 0-.2-.1-.4-.1s-.4 0-.6.1-.4.2-.5.3-.3.2-.5.4v3.9h-1v-5.6h1v.9l.5-.5c.1-.1.3-.2.5-.3s.4-.2.6-.2c.3.1.5.1.6.2m3.8 5.6c-.3.1-.7.2-1.1.2-.5 0-.9-.1-1.2-.4s-.3-.8-.3-1.4v-3.2h-1v-.8h1v-1.8l1-.6v2.4h1.5v.8H76v3.1c0 .4 0 .7.1.9q.15.3.6.3c.2 0 .5 0 .7-.1zm2.2-.4c0 .8-.2 1.5-.7 2.2h-.6c.2-.2.3-.5.4-.8s.2-.5.2-.7v-.2c-.2 0-.4 0-.5-.1s-.1-.3-.1-.5c0-.4.2-.6.7-.6.4-.1.6.2.6.7m-39.9 8.8h-.7v4.8c0 .8-.2 1.3-.6 1.7s-1 .5-1.9.5c-.3 0-.7 0-1.1-.1s-.6-.2-.8-.3l.3-.8c.5.3 1 .5 1.6.5q.75 0 1.2-.3c.2-.2.4-.6.4-1.1v-.6c-.5.4-1.1.6-1.7.6-.7 0-1.3-.3-1.7-.8q-.6-.75-.6-2.1c0-.4 0-.7.1-1.1s.2-.6.4-.9.4-.5.8-.7.7-.3 1.1-.3c.5 0 1.1.2 1.6.6v-.4h1.6zm-1.6 3.4v-3c-.6-.4-1.1-.5-1.5-.5-.5 0-.9.2-1.1.6s-.4.9-.4 1.5c0 1.4.5 2.1 1.4 2.1.6-.1 1.1-.3 1.6-.7m7.1-1.1h-3.9c0 .6.1 1 .4 1.4s.7.5 1.3.5c.2 0 .5 0 .7-.1s.4-.2.5-.3l.6.7q-.75.6-1.8.6c-.9 0-1.6-.2-2-.7s-.7-1.2-.7-2.2c0-2 .9-3 2.6-3 1.5 0 2.3.9 2.3 2.6zm-.9-.8c0-1.1-.5-1.7-1.4-1.7s-1.4.6-1.5 1.7zm6.8 3.3h-1v-3.3c0-.6-.1-1-.2-1.2s-.4-.4-.8-.4-1 .3-1.7.9v4h-1v-5.6h1v.8c.7-.7 1.4-1 2-1s1 .2 1.3.5c.3.4.4.9.4 1.6zm6.1-2.5h-3.9c0 .6.1 1 .4 1.4s.7.5 1.3.5c.2 0 .5 0 .7-.1s.4-.2.5-.3l.6.7q-.75.6-1.8.6c-.9 0-1.6-.2-2-.7s-.7-1.2-.7-2.2c0-2 .9-3 2.6-3 1.5 0 2.3.9 2.3 2.6zm-1-.8c0-1.1-.5-1.7-1.4-1.7s-1.4.6-1.5 1.7zm6.9 3.3h-1v-3.3c0-.6-.1-1-.2-1.2s-.4-.4-.8-.4-1 .3-1.7.9v4h-1v-8h1v3.2c.7-.7 1.4-1 2-1q1.8 0 1.8 2.1v3.7zm9.3 0h-1v-3.3c0-.6-.1-1-.2-1.2s-.3-.3-.7-.3c-.2 0-.5.1-.7.3-.3.2-.6.4-.8.7v4h-1v-3.3c0-.6-.1-1-.2-1.3s-.3-.3-.6-.3c-.4 0-1 .3-1.6.9v4h-1v-5.6h1v.8c.6-.7 1.2-1 1.8-1 .4 0 .7.1 1 .3s.4.5.5.8c.4-.4.7-.6 1-.8s.6-.3 1-.3c.6 0 1 .2 1.2.5s.4.8.4 1.5v3.6zm3 0h-1v-4.9h-1v-.8h1.9v5.7zm.2-7q0 .6-.6.6t-.6-.6c0-.6.2-.6.6-.6.2 0 .4 0 .5.1s.1.3.1.5m6.7 2.2h-.7v4.8c0 .8-.2 1.3-.6 1.7s-1 .5-1.9.5c-.3 0-.7 0-1.1-.1s-.6-.2-.8-.3l.3-.8c.5.3 1 .5 1.6.5q.75 0 1.2-.3c.2-.2.4-.6.4-1.1v-.6c-.5.4-1.1.6-1.7.6-.7 0-1.3-.3-1.7-.8q-.6-.75-.6-2.1c0-.4 0-.7.1-1.1.1-.3.2-.6.4-.9s.4-.5.8-.7c.3-.2.7-.3 1.1-.3.5 0 1.1.2 1.6.6v-.4h1.6zm-1.6 3.4v-3c-.6-.4-1.1-.5-1.5-.5-.5 0-.9.2-1.1.6s-.4.9-.4 1.5c0 1.4.5 2.1 1.4 2.1.6-.1 1.1-.3 1.6-.7m5.6 1.4c-.3.1-.7.2-1.1.2-.5 0-.9-.1-1.2-.4s-.4-.7-.4-1.4v-3.2h-1v-.8h1v-1.8l1-.6v2.4h1.5v.8h-1.5v3.1c0 .4 0 .7.1.9q.15.3.6.3c.2 0 .5 0 .7-.1zm2.1-.4c0 .8-.2 1.5-.7 2.2h-.6c.2-.2.3-.5.4-.8s.2-.5.2-.7v-.2c-.2 0-.4 0-.5-.1s-.1-.3-.1-.5c0-.4.2-.6.7-.6.4-.1.6.2.6.7m-49 10.8c0 .9-.2 1.7-.6 2.2s-1.1.8-2 .8-1.6-.3-2-.8-.6-1.3-.6-2.2.2-1.7.6-2.2 1.1-.8 2-.8 1.5.3 2 .8c.4.5.6 1.3.6 2.2m-1 0c0-1.5-.5-2.2-1.6-2.2s-1.6.7-1.6 2.2c0 1.4.5 2.2 1.6 2.2 1 0 1.6-.7 1.6-2.2m6.9 2.8h-1v-.6c-.5.5-1.1.7-1.8.7s-1.3-.3-1.7-.8q-.6-.75-.6-2.1c0-.9.2-1.7.6-2.2s1-.8 1.7-.8c.6 0 1.2.2 1.7.6v-2.8h1v8zm-1-1.4v-3c-.5-.4-1.1-.5-1.6-.5s-.8.2-1.1.5c-.3.4-.4.9-.4 1.6 0 1.4.5 2.1 1.4 2.1.6.1 1.2-.2 1.7-.7m7.1-1.1h-3.9c0 .6.1 1 .4 1.4s.7.5 1.3.5c.2 0 .5 0 .7-.1s.4-.2.5-.3l.6.7q-.75.6-1.8.6c-.9 0-1.6-.2-2-.7s-.7-1.2-.7-2.2c0-2 .9-3 2.6-3 1.5 0 2.3.9 2.3 2.6zm-1-.8c0-1.1-.5-1.7-1.4-1.7s-1.4.6-1.5 1.7zm5.4-2.3-.2.9c-.1 0-.2-.1-.4-.1s-.4 0-.6.1-.4.2-.5.3-.3.2-.5.4v3.9h-1v-5.6h1v.9l.5-.5c.1-.1.3-.2.5-.3s.4-.2.6-.2c.3.1.4.1.6.2m5 5.6h-1v-4.9h-1v-.8h2zm.1-7q0 .6-.6.6t-.6-.6c0-.6.2-.6.6-.6.2 0 .4 0 .5.1s.1.3.1.5m9.3 7h-1v-3.3c0-.6-.1-1-.2-1.2s-.3-.3-.7-.3c-.2 0-.5.1-.7.3-.3.2-.6.4-.8.7v4h-1v-3.3c0-.6-.1-1-.2-1.3q-.15-.3-.6-.3c-.4 0-1 .3-1.6.9v4h-1V583h1v.8c.6-.7 1.2-1 1.8-1 .4 0 .7.1 1 .3s.4.5.5.8c.4-.4.7-.6 1-.8s.6-.3 1-.3c.6 0 1 .2 1.2.5s.4.8.4 1.5v3.6zm10-2.4c0 .8-.3 1.4-.8 1.8s-1.3.6-2.3.6h-2.6v-8h2.4c1 0 1.8.1 2.2.4s.6.8.6 1.4q0 1.35-1.2 1.8c.5.1 1 .3 1.3.6s.4.8.4 1.4m-1.6-3.5c0-.5-.1-.8-.4-.9-.3-.2-.8-.2-1.4-.2h-1.3v2.5h1.2c.7 0 1.1-.1 1.4-.3.4-.4.5-.7.5-1.1m.6 3.6c0-.6-.2-1-.5-1.1-.3-.2-.9-.3-1.7-.3h-1.4v2.9h2c.2 0 .4 0 .7-.1.2-.1.4-.1.5-.2s.2-.2.3-.4c0-.4.1-.6.1-.8m6.6 2.3h-1v-.7c-.4.3-.7.5-1 .6s-.6.2-1 .2c-.6 0-1-.2-1.3-.5s-.5-.7-.5-1.3.2-1.1.6-1.4 1-.4 1.7-.5c.4 0 .9-.1 1.5-.1v-.3q0-.6-.3-.9c-.2-.2-.6-.3-1-.3-.6 0-1.1.2-1.5.5l-.6-.7q.75-.6 2.1-.6c.8 0 1.4.1 1.8.4s.5.8.5 1.5zm-.9-1.5v-1.4h-1c-.6.1-1 .2-1.3.3s-.4.4-.4.8c0 .6.4.9 1.1.9.2 0 .4 0 .6-.1s.4-.2.5-.3c0 .1.2 0 .5-.2m7.1 1.5h-1v-.8c-.7.7-1.4 1-2 1s-1-.2-1.3-.5-.4-.9-.4-1.6v-3.7h1v3.3c0 .6.1 1 .2 1.2s.4.4.8.4 1-.3 1.7-.9v-4h1z"/><path fill="#e8edf0" d="M70 614.2h-5.3v-.9c.1-.1.3-.2.5-.5.3-.2.5-.4.7-.7.2-.2.4-.4.7-.6.7-.7 1.3-1.3 1.6-1.8s.5-.9.5-1.5c0-.4-.1-.8-.4-1s-.6-.4-1.1-.4c-.7 0-1.3.3-1.7 1l-.8-.5c.5-.9 1.4-1.4 2.6-1.4q1.05 0 1.8.6c.5.4.7.9.7 1.7 0 .9-.5 1.9-1.5 2.9-.4.5-1.2 1.2-2.2 2.1H70zm6.2-2.5c0 .9-.3 1.6-.8 2s-1.2.7-2.1.7q-.75 0-1.5-.3c-.5-.2-.8-.5-1.1-.9l.9-.5c.2.3.4.5.7.6s.6.2.9.2c.6 0 1.1-.2 1.4-.5s.5-.7.5-1.3c0-.5-.2-.9-.5-1.2s-.8-.4-1.4-.4c-.3 0-.5 0-.8.1v-.5l2.3-2.7h-3.5v-.9h4.7v.9l-1.9 2.3c.7 0 1.2.3 1.6.7s.6 1 .6 1.7m2.7 2c0 .8-.2 1.5-.7 2.2h-.6c.2-.2.3-.5.4-.8s.2-.5.2-.7v-.2c-.2 0-.4 0-.5-.1s-.1-.3-.1-.5c0-.4.2-.6.7-.6.4 0 .6.2.6.7m6.7-1.4h-.9v2h-1v-2H80v-1l3.8-5.3h.9v5.4h.9zm-1.9-.9v-3.8l-2.7 3.8zm8.9-1.5c-.3.4-.8.6-1.4.6-1.3 0-1.9-.7-1.9-2.2 0-.7.2-1.3.5-1.7s.8-.5 1.4-.5 1.1.2 1.4.6.5.9.5 1.7c0 .6-.2 1.1-.5 1.5m-.7-2.9c-.1-.2-.4-.3-.7-.3s-.6.1-.7.3q-.3.45-.3 1.2c0 .5.1 1 .3 1.2.1.2.4.3.7.3s.6-.1.7-.3q.3-.45.3-1.2t-.3-1.2m4.5-.8-3.9 8.2h-.9l3.9-8.2zm2 7.5c-.3.4-.8.6-1.4.6-1.3 0-1.9-.7-1.9-2.2 0-.7.2-1.3.5-1.7s.8-.5 1.4-.5 1.1.2 1.4.6.5.9.5 1.7c0 .6-.2 1.2-.5 1.5m-.7-2.8c-.1-.2-.4-.3-.7-.3s-.6.1-.7.3q-.3.45-.3 1.2c0 .5.1 1 .3 1.2.1.2.4.3.7.3s.6-.1.7-.3q.3-.45.3-1.2-.15-.9-.3-1.2m149.5.7c0 .9-.2 1.6-.7 2-.5.5-1.1.7-2 .7-1 0-1.7-.3-2.2-1-.5-.6-.7-1.5-.7-2.7 0-.7.1-1.2.2-1.8s.3-1 .5-1.5.6-.8 1-1 .9-.4 1.5-.4c.9 0 1.6.2 2.1.7l-.6.8c-.3-.2-.5-.4-.7-.5s-.5-.1-.8-.1c-1.3 0-2 .9-2.1 2.8.2-.2.6-.3.9-.4s.7-.2 1.1-.2q1.2 0 1.8.6c.6.6.7 1.1.7 2m-1.1 0c0-1.1-.6-1.7-1.7-1.7-.6 0-1.2.2-1.8.5v.4c0 .8.2 1.4.5 1.9s.8.7 1.4.7c.5 0 .9-.2 1.2-.5.3-.2.4-.7.4-1.3m7.7-1.5c0 .7 0 1.3-.1 1.8s-.2.9-.4 1.3-.5.7-.9.8c-.4.2-.8.3-1.4.3-1.1 0-1.8-.3-2.2-1s-.6-1.7-.6-3.1.2-2.4.6-3.1 1.2-1 2.2-1c1.1 0 1.8.3 2.2 1 .4.6.6 1.7.6 3m-1.1 0c0-1.2-.1-2-.4-2.5-.2-.5-.7-.8-1.4-.8s-1.1.3-1.4.8c-.2.5-.4 1.4-.4 2.5s.1 2 .4 2.6c.2.5.7.8 1.4.8s1.2-.3 1.4-.8c.3-.5.4-1.4.4-2.6m3.6 3.6c0 .8-.2 1.5-.7 2.2h-.6c.2-.2.3-.5.4-.8s.2-.5.2-.7v-.2c-.2 0-.4 0-.5-.1s-.1-.3-.1-.5c0-.4.2-.6.7-.6.4 0 .6.2.6.7m6.3-2.1c0 .8-.2 1.5-.7 2s-1.2.7-2.2.7c-.6 0-1.1-.1-1.6-.3s-.8-.5-1-.8l.9-.5c.2.2.4.4.7.6s.6.2 1 .2c.6 0 1.1-.2 1.4-.5s.5-.8.5-1.4-.2-1-.5-1.2c-.4-.3-.8-.4-1.3-.4-.6 0-1.1.1-1.6.4h-.5l.5-4.3h4.1v.9H259l-.3 2.4c.4-.2.8-.3 1.3-.3.8 0 1.4.2 1.9.6.5.5.7 1.1.7 1.9m7-1.7c-.3.4-.8.6-1.4.6-1.3 0-1.9-.7-1.9-2.2 0-.7.2-1.3.5-1.7s.8-.5 1.4-.5 1.1.2 1.4.6.5.9.5 1.7c0 .6-.1 1.1-.5 1.5m-.7-2.9c-.1-.2-.4-.3-.7-.3s-.6.1-.7.3q-.3.45-.3 1.2c0 .5.1 1 .3 1.2.1.2.4.3.7.3s.6-.1.7-.3q.3-.45.3-1.2t-.3-1.2m4.5-.8-3.9 8.2h-.9l3.9-8.2zm2 7.5c-.3.4-.8.6-1.4.6-1.3 0-1.9-.7-1.9-2.2 0-.7.2-1.3.5-1.7s.8-.5 1.4-.5 1.1.2 1.4.6.5.9.5 1.7c0 .6-.2 1.2-.5 1.5m-.7-2.8c-.1-.2-.4-.3-.7-.3s-.6.1-.7.3q-.3.45-.3 1.2c0 .5.1 1 .3 1.2.1.2.4.3.7.3s.6-.1.7-.3q.3-.45.3-1.2c-.1-.6-.1-1-.3-1.2m124.6 3.3h-3.8v-.8h1.5v-5.8c-.5.3-1 .5-1.7.6v-.8c.9-.3 1.6-.7 2-1.4h.6v7.4h1.3v.8zm6.7-2.6c0 .9-.2 1.6-.7 2s-1.1.7-2 .7c-1 0-1.7-.3-2.2-1-.5-.6-.7-1.5-.7-2.7 0-.7.1-1.2.2-1.8.1-.5.3-1 .5-1.5s.6-.8 1-1 .9-.4 1.5-.4c.9 0 1.6.2 2.1.7l-.6.8c-.3-.2-.5-.4-.7-.5s-.5-.1-.8-.1c-1.3 0-2 .9-2.1 2.8.2-.2.6-.3.9-.4s.7-.2 1.1-.2q1.2 0 1.8.6c.5.5.7 1.1.7 2m-1.1 0c0-1.1-.6-1.7-1.7-1.7-.6 0-1.2.2-1.8.5v.4c0 .8.2 1.4.5 1.9s.8.7 1.4.7c.5 0 .9-.2 1.2-.5.3-.2.4-.7.4-1.3m3.6 2.1c0 .8-.2 1.5-.7 2.2h-.6c.2-.2.3-.5.4-.8s.2-.5.2-.7v-.2c-.2 0-.4 0-.5-.1s-.1-.3-.1-.5c0-.4.2-.6.7-.6.4 0 .6.2.6.7m5.2.5h-3.8v-.8h1.5v-5.8c-.5.3-1 .5-1.7.6v-.8c.9-.3 1.6-.7 2-1.4h.6v7.4h1.3v.8zm7-4.3c-.3.4-.8.6-1.4.6-1.3 0-1.9-.7-1.9-2.2 0-.7.2-1.3.5-1.7s.8-.5 1.4-.5 1.1.2 1.4.6.5.9.5 1.7c0 .6-.2 1.1-.5 1.5m-.7-2.9c-.1-.2-.4-.3-.7-.3s-.6.1-.7.3q-.3.45-.3 1.2c0 .5.1 1 .3 1.2.1.2.4.3.7.3s.6-.1.7-.3q.3-.45.3-1.2-.15-.75-.3-1.2m4.5-.8-3.9 8.2h-.9l3.9-8.2zm1.9 7.5c-.3.4-.8.6-1.4.6-1.3 0-1.9-.7-1.9-2.2 0-.7.2-1.3.5-1.7s.8-.5 1.4-.5 1.1.2 1.4.6.5.9.5 1.7c0 .6-.1 1.2-.5 1.5m-.7-2.8c-.1-.2-.4-.3-.7-.3s-.6.1-.7.3q-.3.45-.3 1.2c0 .5.1 1 .3 1.2.1.2.4.3.7.3s.6-.1.7-.3q.3-.45.3-1.2 0-.9-.3-1.2"/><path fill="#3b4956" d="M37.5 635.6c0 .9-.2 1.6-.5 2.1s-.9.8-1.6.9c.1.2.2.4.4.5s.4.1.7.1c.2 0 .4 0 .6-.1l.2.6c-.2.1-.5.1-.9.1-.5 0-1-.1-1.3-.3s-.5-.5-.6-1c-.8-.1-1.3-.4-1.7-.8-.4-.5-.5-1.2-.5-2.2s.2-1.7.6-2.3 1.1-.8 2-.8 1.6.3 2 .8c.4.7.6 1.4.6 2.4m-.8 0c0-.8-.1-1.4-.4-1.8s-.7-.6-1.4-.6c-.6 0-1.1.2-1.4.6s-.4 1-.4 1.8.1 1.4.4 1.8.7.6 1.4.6c.6 0 1.1-.2 1.4-.6s.4-1 .4-1.8m5.2 2.9h-.7v-.6c-.5.5-1 .7-1.4.7s-.8-.1-1-.4-.3-.6-.3-1.2v-2.7h.7v2.4c0 .4 0 .7.1.9q.15.3.6.3c.3 0 .7-.2 1.3-.7v-2.9h.7zm4.4-1.8h-2.8c0 .4.1.8.3 1 .2.3.5.4.9.4.2 0 .4 0 .5-.1s.3-.2.4-.2l.4.5c-.3.3-.8.4-1.3.4-.6 0-1.1-.2-1.5-.5-.3-.3-.5-.9-.5-1.6 0-1.5.6-2.2 1.9-2.2 1.1 0 1.7.6 1.7 1.9zm-.7-.6c0-.8-.3-1.2-1-1.2s-1 .4-1.1 1.2zm3.3 2.5c-.2.1-.4.1-.7.1-.4 0-.6-.1-.8-.3-.1-.2-.2-.5-.2-1V633l.7-.4v4.8c0 .3 0 .5.1.6s.2.2.3.2.3 0 .4-.1zm2.2 0c-.2.1-.4.1-.7.1-.4 0-.6-.1-.8-.3-.1-.2-.2-.5-.2-1V633l.7-.4v4.8c0 .3 0 .5.1.6s.2.2.3.2.3 0 .4-.1zm3.9-1.9h-2.8c0 .4.1.8.3 1 .2.3.5.4.9.4.2 0 .4 0 .5-.1.2-.1.3-.2.4-.2l.4.5c-.3.3-.8.4-1.3.4-.6 0-1.1-.2-1.5-.5-.3-.3-.5-.9-.5-1.6 0-1.5.6-2.2 1.9-2.2 1.1 0 1.7.6 1.7 1.9zm-.7-.6c0-.8-.3-1.2-1-1.2s-1 .4-1.1 1.2zm2.4-1c0 .2 0 .3-.1.4s-.2.1-.4.1-.3 0-.4-.1-.1-.2-.1-.3c0-.2 0-.3.1-.4s.2-.1.4-.1.3 0 .4.1.1.2.1.3m0 3c0 .2 0 .3-.1.4s-.2.1-.4.1-.3 0-.4-.1-.1-.2-.1-.3c0-.2 0-.3.1-.4s.2-.1.4-.1.3 0 .4.1c.1 0 .1.1.1.3m7.3-1.3c0 .6-.2 1-.6 1.3s-.9.4-1.7.4h-1.9v-5.8h1.7c.8 0 1.3.1 1.6.3s.5.5.5 1c0 .7-.3 1.1-.9 1.3.4 0 .7.2.9.4.3.3.4.6.4 1.1m-1.2-2.6c0-.3-.1-.6-.3-.7s-.5-.2-1-.2h-.9v1.8h.9c.5 0 .8-.1 1.1-.2.1-.1.2-.4.2-.7m.4 2.6c0-.4-.1-.7-.4-.8s-.7-.2-1.2-.2h-1v2.1H62c.2 0 .3 0 .5-.1s.3-.1.4-.2.2-.2.2-.3c.1-.1.1-.3.1-.5m5.1 1.7h-.7v-.6c-.5.5-1 .7-1.4.7s-.8-.1-1-.4-.3-.6-.3-1.2v-2.7h.7v2.4c0 .4 0 .7.1.9q.15.3.6.3c.3 0 .7-.2 1.3-.7v-2.9h.7zm4.5 0h-.7v-2.4c0-.4 0-.7-.1-.9q-.15-.3-.6-.3c-.3 0-.7.2-1.3.7v2.9h-.7v-4.1h.7v.6c.5-.5 1-.7 1.4-.7s.8.1 1 .4.3.6.3 1.2zm4.6 0h-.7v-.4c-.4.4-.8.5-1.3.5s-1-.2-1.2-.6c-.3-.4-.4-.9-.4-1.6s.2-1.2.5-1.6.7-.6 1.3-.6c.4 0 .9.1 1.2.4v-2h.7v5.9zm-.7-1v-2.2c-.4-.3-.8-.4-1.1-.4s-.6.1-.8.4q-.3.45-.3 1.2c0 1 .3 1.6 1 1.6.4-.1.8-.2 1.2-.6m5.1-.8H79c0 .4.1.8.3 1 .2.3.5.4.9.4.2 0 .4 0 .5-.1.2-.1.3-.2.4-.2l.4.5c-.3.3-.8.4-1.3.4-.6 0-1.1-.2-1.5-.5-.3-.3-.5-.9-.5-1.6 0-1.5.6-2.2 1.9-2.2 1.1 0 1.7.6 1.7 1.9zm-.7-.6c0-.8-.3-1.2-1-1.2s-1 .4-1.1 1.2zm4.5 1.3c0 .4-.2.8-.5 1q-.45.3-1.2.3c-.3 0-.6-.1-.9-.2s-.5-.3-.6-.6l.6-.3c.2.3.6.5 1 .5q.9 0 .9-.6c0-.2-.1-.3-.2-.4s-.4-.2-.8-.3c-.2-.1-.4-.1-.5-.2s-.3-.1-.4-.2-.3-.2-.3-.4c-.1-.1-.1-.3-.1-.5 0-.4.2-.7.5-.9s.7-.3 1.1-.3c.3 0 .6.1.9.2s.5.3.6.5l-.6.3c-.2-.3-.5-.5-.9-.5-.2 0-.4 0-.6.1s-.3.3-.3.5v.1s0 .1.1.1l.1.1.1.1s.1 0 .1.1h.4c.1 0 .2.1.3.1 0 0 .1 0 .3.1.1 0 .2.1.3.1s.1.1.2.1.2.1.2.2.1.1.1.2c.1.1.1.2.1.3zm4.3 1.1h-.7v-2.4c0-.4 0-.7-.1-.9q-.15-.3-.6-.3c-.3 0-.7.2-1.3.7v2.9h-.7v-4.1h.7v.6c.5-.5 1-.7 1.4-.7s.8.1 1 .4.3.6.3 1.2zm4.4-1.8h-2.8c0 .4.1.8.3 1 .2.3.5.4.9.4.2 0 .4 0 .5-.1.2-.1.3-.2.4-.2l.4.5c-.3.3-.8.4-1.3.4-.6 0-1.1-.2-1.5-.5-.3-.3-.5-.9-.5-1.6 0-1.5.6-2.2 1.9-2.2 1.1 0 1.7.6 1.7 1.9zm-.7-.6c0-.8-.3-1.2-1-1.2s-1 .4-1.1 1.2zm3.7 2.4c-.2.1-.5.1-.8.1q-.6 0-.9-.3c-.2-.2-.3-.5-.3-1V635h-.7v-.6h.7v-1.3l.7-.4v1.7h1.1v.6H96v2.3c0 .3 0 .5.1.6s.2.2.4.2.3 0 .5-.1zm3.5 0h-3.2v-.5l2.2-3h-2.2v-.6h3v.5l-2.2 3h2.3v.6zm4.5-3.5h-.5v3.5c0 .6-.1 1-.4 1.2-.3.3-.8.4-1.4.4-.3 0-.5 0-.8-.1s-.5-.1-.6-.2l.2-.6c.3.2.7.3 1.1.3s.7-.1.9-.2c.2-.2.3-.4.3-.8v-.4c-.4.3-.8.4-1.2.4q-.75 0-1.2-.6c-.3-.4-.4-.9-.4-1.5 0-.3 0-.5.1-.8.1-.2.2-.5.3-.7s.3-.4.5-.5.5-.2.8-.2c.4 0 .8.1 1.1.4v-.3h1.1v.7zm-1.2 2.5v-2.2c-.4-.3-.8-.4-1.1-.4-.4 0-.6.1-.8.4s-.3.7-.3 1.1c0 1 .3 1.5 1 1.5.5 0 .9-.1 1.2-.4m5.2-.8h-2.8c0 .4.1.8.3 1 .2.3.5.4.9.4.2 0 .4 0 .5-.1.2-.1.3-.2.4-.2l.4.5c-.3.3-.8.4-1.3.4-.6 0-1.1-.2-1.5-.5-.3-.3-.5-.9-.5-1.6 0-1.5.6-2.2 1.9-2.2 1.1 0 1.7.6 1.7 1.9zm-.7-.6c0-.8-.3-1.2-1-1.2s-1 .4-1.1 1.2zm5 2.4h-.7v-2.4c0-.4 0-.7-.1-.9q-.15-.3-.6-.3c-.3 0-.7.2-1.3.7v2.9h-.7v-4.1h.7v.6c.5-.5 1-.7 1.4-.7s.8.1 1 .4.3.6.3 1.2zm3.3 0c-.2.1-.5.1-.8.1q-.6 0-.9-.3c-.2-.2-.3-.5-.3-1V635h-.7v-.6h.7v-1.3l.7-.4v1.7h1.1v.6h-1.1v2.3c0 .3 0 .5.1.6s.2.2.4.2.3 0 .5-.1zm4 0h-.7v-.6c-.5.5-1 .7-1.4.7s-.8-.1-1-.4-.3-.6-.3-1.2v-2.7h.7v2.4c0 .4 0 .7.1.9q.15.3.6.3c.3 0 .7-.2 1.3-.7v-2.9h.7zm3.5-4.1-.2.7h-.3c-.2 0-.3 0-.5.1-.1.1-.3.1-.4.2s-.2.2-.4.3v2.8h-.7v-4.1h.7v.7l.4-.4c.1-.1.2-.2.4-.2s.3-.1.5-.1zm74.6-46h-1v-4.9h-1v-.8h1.9v5.7zm.1-7q0 .6-.6.6t-.6-.6c0-.6.2-.6.6-.6.2 0 .4 0 .5.1s.1.3.1.5m9.3 7h-1v-3.3c0-.6-.1-1-.2-1.2s-.3-.3-.7-.3c-.2 0-.5.1-.7.3-.3.2-.6.4-.8.7v4h-1v-3.3c0-.6-.1-1-.2-1.3s-.3-.3-.6-.3c-.4 0-1 .3-1.6.9v4h-1V583h1v.8c.6-.7 1.2-1 1.8-1 .4 0 .7.1 1 .3s.4.5.5.8c.4-.4.7-.6 1-.8s.6-.3 1-.3c.6 0 1 .2 1.2.5s.4.8.4 1.5v3.6zm9.5-5.6c0 .9-.2 1.5-.7 1.9s-1.2.6-2.3.6h-1.3v3.1h-1v-8h2.3c1 0 1.7.2 2.2.5.6.4.8 1 .8 1.9m-1 0c0-.6-.2-1-.5-1.2s-.8-.3-1.4-.3h-1.3v3.1h1.1c.7 0 1.3-.1 1.6-.3s.5-.6.5-1.3m4.6 5.7c-.3.1-.6.1-.9.1-.5 0-.9-.1-1.1-.4s-.3-.7-.3-1.4v-6.1l1-.6v6.7c0 .4 0 .7.1.8.1.2.2.2.5.2.2 0 .4 0 .6-.1zm5-.1h-1v-.7c-.4.3-.7.5-1 .6s-.6.2-1 .2c-.6 0-1-.2-1.3-.5s-.5-.7-.5-1.3.2-1.1.6-1.4 1-.4 1.7-.5c.4 0 .9-.1 1.5-.1v-.3q0-.6-.3-.9c-.2-.2-.6-.3-1-.3-.6 0-1.1.2-1.5.5l-.6-.7q.75-.6 2.1-.6c.8 0 1.4.1 1.8.4s.5.8.5 1.5zm-1-1.5v-1.4h-1c-.6.1-1 .2-1.3.3-.3.2-.4.4-.4.8 0 .6.4.9 1.1.9.2 0 .4 0 .6-.1s.4-.2.5-.3c.1.1.3 0 .5-.2m7.2 1.5h-1v-3.3c0-.6-.1-1-.2-1.2s-.4-.4-.8-.4-1 .3-1.7.9v4h-1v-5.6h1v.8c.7-.7 1.4-1 2-1s1 .2 1.3.5.4.9.4 1.6zm6.2 0h-1v-.8c-.7.7-1.4 1-2 1s-1-.2-1.3-.5c-.3-.4-.4-.9-.4-1.6v-3.7h1v3.3c0 .6.1 1 .2 1.2s.4.4.8.4 1-.3 1.7-.9v-4h1zm6.3 0h-1v-3.3c0-.6-.1-1-.2-1.2s-.4-.4-.8-.4-1 .3-1.7.9v4h-1v-5.6h1v.8c.7-.7 1.4-1 2-1s1 .2 1.3.5.4.9.4 1.6zm6.7-4.8h-.7v4.8c0 .8-.2 1.3-.6 1.7s-1 .5-1.9.5c-.3 0-.7 0-1.1-.1s-.6-.2-.8-.3l.3-.8c.5.3 1 .5 1.6.5q.75 0 1.2-.3c.2-.2.4-.6.4-1.1v-.6c-.5.4-1.1.6-1.7.6-.7 0-1.3-.3-1.7-.8q-.6-.75-.6-2.1c0-.4 0-.7.1-1.1.1-.3.2-.6.4-.9s.4-.5.8-.7c.3-.2.7-.3 1.1-.3.5 0 1.1.2 1.6.6v-.4h1.6zm-1.6 3.4v-3c-.6-.4-1.1-.5-1.5-.5-.5 0-.9.2-1.1.6s-.4.9-.4 1.5c0 1.4.5 2.1 1.4 2.1.6-.1 1.1-.3 1.6-.7m6.7-.1c0 .6-.2 1-.7 1.3-.4.3-1 .4-1.6.4-.4 0-.9-.1-1.3-.2s-.7-.4-.9-.8l.8-.5c.3.5.8.7 1.4.7.9 0 1.3-.3 1.3-.9 0-.2-.1-.4-.3-.5s-.6-.2-1.2-.4c-.3-.1-.5-.1-.7-.2l-.6-.3c-.2-.1-.3-.3-.4-.5s-.1-.4-.1-.7c0-.6.2-1 .6-1.3s.9-.4 1.5-.4c.4 0 .8.1 1.2.2.4.2.7.4.9.7l-.8.5c-.3-.4-.7-.7-1.3-.7-.3 0-.6.1-.8.2s-.4.3-.4.6v.2c0 .1 0 .1.1.2l.1.1.1.1c.1 0 .1.1.1.1s.1 0 .2.1h.6c.2.1.3.1.4.1s.2 0 .4.1.3.1.4.1.2.1.3.2.2.1.3.2.1.2.2.3.1.2.2.3c-.1.4 0 .5 0 .7m5.6-4.1-2.1 5.6h-1l-2.1-5.6h1l1.5 4.4 1.5-4.4zm5.4 3.1h-3.9c0 .6.1 1 .4 1.4s.7.5 1.3.5c.2 0 .5 0 .7-.1s.4-.2.5-.3l.6.7q-.75.6-1.8.6c-.9 0-1.6-.2-2-.7s-.7-1.2-.7-2.2c0-2 .9-3 2.6-3 1.5 0 2.3.9 2.3 2.6zm-1-.8c0-1.1-.5-1.7-1.4-1.7s-1.4.6-1.5 1.7zm5.4-2.3-.2.9c-.1 0-.2-.1-.4-.1s-.4 0-.6.1-.4.2-.5.3-.3.2-.5.4v3.9h-1v-5.6h1v.9l.5-.5c.1-.1.3-.2.5-.3s.4-.2.6-.2c.2.1.4.1.6.2m4-2.3-.3.8c-.3-.1-.6-.2-.9-.2s-.6.1-.7.3-.2.5-.2.9v.6h1.4v.8h-1.4v4.9h-1v-4.9h-.9v-.8h.9v-.6c0-.7.1-1.2.4-1.5s.7-.5 1.4-.5c.6 0 .9 0 1.3.2m4.7 7.9h-1v-.7c-.4.3-.7.5-1 .6s-.6.2-1 .2c-.6 0-1-.2-1.3-.5s-.5-.7-.5-1.3.2-1.1.6-1.4 1-.4 1.7-.5c.4 0 .9-.1 1.5-.1v-.3q0-.6-.3-.9c-.2-.2-.6-.3-1-.3-.6 0-1.1.2-1.5.5l-.6-.7q.75-.6 2.1-.6c.8 0 1.4.1 1.8.4s.5.8.5 1.5zm-1-1.5v-1.4h-1c-.6.1-1 .2-1.3.3-.3.2-.4.4-.4.8 0 .6.4.9 1.1.9.2 0 .4 0 .6-.1s.4-.2.5-.3c.1.1.3 0 .5-.2m7.2 1.5h-1v-3.3c0-.6-.1-1-.2-1.2s-.4-.4-.8-.4-1 .3-1.7.9v4h-1v-8h1v3.2c.7-.7 1.4-1 2-1q1.8 0 1.8 2.1v3.7zm4.7-5.6-.2.9c-.1 0-.2-.1-.4-.1s-.4 0-.6.1-.4.2-.5.3-.3.2-.5.4v3.9h-1v-5.6h1v.9l.5-.5c.1-.1.3-.2.5-.3s.4-.2.6-.2c.3.1.5.1.6.2m5.4 3.1h-3.9c0 .6.1 1 .4 1.4s.7.5 1.3.5c.2 0 .5 0 .7-.1s.4-.2.5-.3l.6.7q-.75.6-1.8.6c-.9 0-1.6-.2-2-.7s-.7-1.2-.7-2.2c0-2 .9-3 2.6-3 1.5 0 2.3.9 2.3 2.6zm-1-.8c0-1.1-.5-1.7-1.4-1.7s-1.4.6-1.5 1.7zm6.9 3.3h-1v-3.3c0-.6-.1-1-.2-1.2s-.4-.4-.8-.4-1 .3-1.7.9v4h-1v-5.6h1v.8c.7-.7 1.4-1 2-1s1 .2 1.3.5.4.9.4 1.6zm78.1-26.4h-1v-3.3c0-.6-.1-1-.2-1.2s-.4-.4-.8-.4-1 .3-1.7.9v4h-1v-5.6h1v.8c.7-.7 1.4-1 2-1s1 .2 1.3.5.4.9.4 1.6zm6.4-2.8c0 .9-.2 1.7-.6 2.2s-1.1.8-2 .8-1.6-.3-2-.8-.6-1.3-.6-2.2.2-1.7.6-2.2 1.1-.8 2-.8 1.5.3 2 .8c.4.5.6 1.3.6 2.2m-1 0c0-1.5-.5-2.2-1.6-2.2s-1.6.7-1.6 2.2c0 1.4.5 2.2 1.6 2.2s1.6-.7 1.6-2.2m6.6-1.9-.8.5c-.3-.5-.7-.7-1.3-.7-1.1 0-1.6.7-1.6 2.2 0 .7.1 1.2.4 1.6.2.4.7.6 1.3.6.5 0 .9-.2 1.3-.5l.6.7c-.5.4-1.1.6-1.9.6-1.7 0-2.6-1-2.6-3s.9-3 2.6-3c.9-.1 1.6.3 2 1m5.8 4.7h-1v-3.3c0-.6-.1-1-.2-1.2s-.4-.4-.8-.4-1 .3-1.7.9v4h-1v-8h1v3.2c.7-.7 1.4-1 2-1q1.8 0 1.8 2.1v3.7zm8.8 0h-1v-3.3c0-.6-.1-1-.2-1.2s-.4-.4-.8-.4-1 .3-1.7.9v4h-1v-5.6h1v.8c.7-.7 1.4-1 2-1s1 .2 1.3.5.4.9.4 1.6zm3.1 0h-1v-4.9h-1v-.8h1.9v5.7zm.1-7q0 .6-.6.6t-.6-.6c0-.6.2-.6.6-.6.2 0 .4 0 .5.1s.1.3.1.5m5.9 2.3-.8.5c-.3-.5-.7-.7-1.3-.7-1.1 0-1.6.7-1.6 2.2 0 .7.1 1.2.4 1.6.2.4.7.6 1.3.6.5 0 .9-.2 1.3-.5l.6.7c-.5.4-1.1.6-1.9.6-1.7 0-2.6-1-2.6-3s.9-3 2.6-3c.9-.1 1.6.3 2 1m5.7 4.7h-1v-3.3c0-.6-.1-1-.2-1.2s-.4-.4-.8-.4-1 .3-1.7.9v4h-1v-8h1v3.2c.7-.7 1.4-1 2-1q1.8 0 1.8 2.1v3.7zm4.5 0c-.3.1-.7.2-1.1.2-.5 0-.9-.1-1.2-.4s-.4-.7-.4-1.4v-3.2h-1v-.8h1v-1.8l1-.6v2.4h1.5v.8h-1.5v3.1c0 .4 0 .7.1.9q.15.3.6.3c.2 0 .5 0 .7-.1zm-49.1 13.2h-1v-4.9h-1v-.8h1.9v5.7zm.2-7q0 .6-.6.6t-.6-.6c0-.6.2-.6.6-.6.2 0 .4 0 .5.1 0 .1.1.3.1.5m9.3 7h-1v-3.3c0-.6-.1-1-.2-1.2s-.3-.3-.7-.3c-.2 0-.5.1-.7.3s-.6.4-.8.7v4h-1v-3.3c0-.6-.1-1-.2-1.3s-.3-.3-.6-.3c-.4 0-1 .3-1.6.9v4h-1v-5.6h1v.8c.6-.7 1.2-1 1.8-1 .4 0 .7.1 1 .3s.4.5.5.8c.4-.4.7-.6 1-.8s.6-.3 1-.3c.6 0 1 .2 1.2.5s.4.8.4 1.5v3.6zm9.5-5.6c0 .9-.2 1.5-.7 1.9s-1.2.6-2.3.6h-1.3v3.1h-1v-8h2.3c1 0 1.7.2 2.2.5.5.4.8 1 .8 1.9m-1.1 0c0-.6-.2-1-.5-1.2s-.8-.3-1.4-.3h-1.3v3.1h1.1c.7 0 1.3-.1 1.6-.3.4-.2.5-.6.5-1.3m4.6 5.7c-.3.1-.6.1-.9.1-.5 0-.9-.1-1.1-.4s-.3-.7-.3-1.4v-6.1l1-.6v6.7c0 .4 0 .7.1.8.1.2.2.2.5.2.2 0 .4 0 .6-.1zm5-.1h-1v-.7c-.4.3-.7.5-1 .6s-.6.2-1 .2c-.6 0-1-.2-1.3-.5s-.5-.7-.5-1.3.2-1.1.6-1.4 1-.4 1.7-.5c.4 0 .9-.1 1.5-.1v-.3q0-.6-.3-.9c-.2-.2-.6-.3-1-.3-.6 0-1.1.2-1.5.5l-.6-.7q.75-.6 2.1-.6c.8 0 1.4.1 1.8.4s.5.8.5 1.5zm-.9-1.5v-1.4h-1c-.6.1-1 .2-1.3.3-.3.2-.4.4-.4.8 0 .6.4.9 1.1.9.2 0 .4 0 .6-.1s.4-.2.5-.3c.1.1.2 0 .5-.2m7.2 1.5h-1v-3.3c0-.6-.1-1-.2-1.2s-.4-.4-.8-.4-1 .3-1.7.9v4h-1v-5.6h1v.8c.7-.7 1.4-1 2-1s1 .2 1.3.5.4.9.4 1.6zm6.2 0h-1v-.8c-.7.7-1.4 1-2 1s-1-.2-1.3-.5c-.3-.4-.4-.9-.4-1.6v-3.7h1v3.3c0 .6.1 1 .2 1.2s.4.4.8.4 1-.3 1.7-.9v-4h1zm6.2 0h-1v-3.3c0-.6-.1-1-.2-1.2s-.4-.4-.8-.4-1 .3-1.7.9v4h-1v-5.6h1v.8c.7-.7 1.4-1 2-1s1 .2 1.3.5.4.9.4 1.6zm6.8-4.8h-.7v4.8c0 .8-.2 1.3-.6 1.7s-1 .5-1.9.5c-.3 0-.7 0-1.1-.1s-.6-.2-.8-.3l.3-.8c.5.3 1 .5 1.6.5q.75 0 1.2-.3c.2-.2.4-.6.4-1.1v-.6c-.5.4-1.1.6-1.7.6-.7 0-1.3-.3-1.7-.8q-.6-.75-.6-2.1c0-.4 0-.7.1-1.1.1-.3.2-.6.4-.9s.4-.5.8-.7c.3-.2.7-.3 1.1-.3.5 0 1.1.2 1.6.6v-.4h1.6zm-1.6 3.4v-3c-.6-.4-1.1-.5-1.5-.5-.5 0-.9.2-1.1.6s-.4.9-.4 1.5c0 1.4.5 2.1 1.4 2.1.5-.1 1.1-.3 1.6-.7m6.6-.1c0 .6-.2 1-.7 1.3-.4.3-1 .4-1.6.4-.4 0-.9-.1-1.3-.2s-.7-.4-.9-.8l.8-.5c.3.5.8.7 1.4.7.9 0 1.3-.3 1.3-.9 0-.2-.1-.4-.3-.5s-.6-.2-1.2-.4c-.3-.1-.5-.1-.7-.2l-.6-.3c-.2-.1-.3-.3-.4-.5s-.1-.4-.1-.7c0-.6.2-1 .6-1.3s.9-.4 1.5-.4c.4 0 .8.1 1.2.2.4.2.7.4.9.7l-.8.5c-.3-.4-.7-.7-1.3-.7-.3 0-.6.1-.8.2s-.4.3-.4.6v.2c0 .1 0 .1.1.2l.1.1.1.1c.1 0 .1.1.1.1s.1 0 .2.1h.6c.2.1.3.1.4.1s.2 0 .4.1.3.1.4.1.2.1.3.2.2.1.3.2.1.2.2.3.1.2.2.3zm4.1-.8H437v-1h3.3zm-59.2 9.9-2.1 5.6h-1l-2.1-5.6h1l1.5 4.4 1.5-4.4zm5.4 3.1h-3.9c0 .6.1 1 .4 1.4s.7.5 1.3.5c.2 0 .5 0 .7-.1s.4-.2.5-.3l.6.7q-.75.6-1.8.6c-.9 0-1.6-.2-2-.7s-.7-1.2-.7-2.2c0-2 .9-3 2.6-3 1.5 0 2.3.9 2.3 2.6zm-.9-.8c0-1.1-.5-1.7-1.4-1.7s-1.4.6-1.5 1.7zm5.3-2.3-.2.9c-.1 0-.2-.1-.4-.1s-.4 0-.6.1-.4.2-.5.3-.3.2-.5.4v3.9h-1v-5.6h1v.9l.5-.5c.1-.1.3-.2.5-.3s.4-.2.6-.2c.3.1.5.1.6.2m4-2.3-.3.8c-.3-.1-.6-.2-.9-.2s-.6.1-.7.3-.2.5-.2.9v.5h1.4v.8h-1.4v4.9h-1v-4.9h-.9v-.8h.9v-.5c0-.7.1-1.2.4-1.5s.7-.5 1.4-.5c.6 0 1 0 1.3.2m4.7 7.9h-1v-.7c-.4.3-.7.5-1 .6s-.6.2-1 .2c-.6 0-1-.2-1.3-.5s-.5-.7-.5-1.3.2-1.1.6-1.4 1-.4 1.7-.5c.4 0 .9-.1 1.5-.1v-.3q0-.6-.3-.9c-.2-.2-.6-.3-1-.3-.6 0-1.1.2-1.5.5l-.6-.7q.75-.6 2.1-.6c.8 0 1.4.1 1.8.4s.5.8.5 1.5zm-.9-1.5v-1.4h-1c-.6.1-1 .2-1.3.3s-.4.4-.4.8c0 .6.4.9 1.1.9.2 0 .4 0 .6-.1s.4-.2.5-.3.2 0 .5-.2m7.2 1.5h-1v-3.3c0-.6-.1-1-.2-1.2s-.4-.4-.8-.4-1 .3-1.7.9v4h-1v-8h1v3.2c.7-.7 1.4-1 2-1q1.8 0 1.8 2.1v3.7zm4.7-5.6-.2.9c-.1 0-.2-.1-.4-.1s-.4 0-.6.1-.4.2-.5.3-.3.2-.5.4v3.9h-1v-5.6h1v.9l.5-.5c.1-.1.3-.2.5-.3s.4-.2.6-.2c.2.1.4.1.6.2m5.3 3.1H412c0 .6.1 1 .4 1.4s.7.5 1.3.5c.2 0 .5 0 .7-.1s.4-.2.5-.3l.6.7q-.75.6-1.8.6c-.9 0-1.6-.2-2-.7s-.7-1.2-.7-2.2c0-2 .9-3 2.6-3 1.5 0 2.3.9 2.3 2.6zm-.9-.8c0-1.1-.5-1.7-1.4-1.7s-1.4.6-1.5 1.7zm6.8 3.3h-1v-3.3c0-.6-.1-1-.2-1.2s-.4-.4-.8-.4-1 .3-1.7.9v4h-1v-5.6h1v.8c.7-.7 1.4-1 2-1s1 .2 1.3.5c.3.4.4.9.4 1.6z"/></svg>