<?xml version="1.0" encoding="UTF-8" standalone="no"?>
<!-- Generator: Adobe Illustrator 19.0.0, SVG Export Plug-In . SVG Version: 6.00 Build 0)  -->

<svg
   version="1.1"
   id="layer"
   x="0px"
   y="0px"
   viewBox="20 71 599.95081 136.89999"
   xml:space="preserve"
   sodipodi:docname="universitaetsklinikum-leipzig-logo-vector.svg"
   width="599.95081"
   height="136.89999"
   inkscape:version="1.4.2 (ebf0e940d0, 2025-05-08)"
   xmlns:inkscape="http://www.inkscape.org/namespaces/inkscape"
   xmlns:sodipodi="http://sodipodi.sourceforge.net/DTD/sodipodi-0.dtd"
   xmlns="http://www.w3.org/2000/svg"
   xmlns:svg="http://www.w3.org/2000/svg"><defs
   id="defs1" /><sodipodi:namedview
   id="namedview1"
   pagecolor="#ffffff"
   bordercolor="#000000"
   borderopacity="0.25"
   inkscape:showpageshadow="2"
   inkscape:pageopacity="0.0"
   inkscape:pagecheckerboard="0"
   inkscape:deskcolor="#d1d1d1"
   inkscape:zoom="1.7837423"
   inkscape:cx="314.50731"
   inkscape:cy="68.675838"
   inkscape:window-width="2560"
   inkscape:window-height="1371"
   inkscape:window-x="0"
   inkscape:window-y="0"
   inkscape:window-maximized="1"
   inkscape:current-layer="layer" />
<style
   type="text/css"
   id="style1">
	.st0{fill:#868685;}
	.st1{fill:#1181BB;}
</style>
<path
   id="XMLID_182_"
   class="st0"
   d="m 43.850788,85.5 c -6.7,29.2 -0.2,53.1 15.5,61 19.6,9.8 58.700002,-8.3 72.900002,-47.8 1.3,-3.6 3,-9 4.3,-14.1 h 2.3 c -0.5,2.1 -1.2,4.8 -1.6,6.2 -11.8,43.7 -50.400002,73.5 -80.000002,67.6 -26,-5.2 -40,-35.1 -36.8,-72.9 z" />
<path
   id="XMLID_181_"
   class="st1"
   d="m 56.550788,127.2 c -1.3,-15.1 -0.6,-29.3 2,-41.7 h 31.3 c -2.8,8.2 -5.4,18.1 -6.4,27.7 -4.1,39.8 11.1,75.6 33.200002,79.8 19.2,3.6 40.2,-8.5 49,-30.5 h 2.1 c -7.2,23.3 -30.8,38.9 -51.9,39.5 -29.900002,1 -55.300002,-29.6 -59.300002,-74.8" />
<path
   id="XMLID_27_"
   d="m 172.55079,146.4 h 12.3 v 5.6 h -19.2 v -32.8 h 6.8 v 27.2 z m 62.3,-13.8 c 1.5,-1.7 3.9,-2.7 6.3,-2.7 6.5,0 10.4,5.7 10.4,11.3 0,5.8 -3.8,11.5 -10.6,11.5 -2.3,0 -4.8,-1 -6.1,-2.7 v 0 13.4 h -6.5 v -32.7 h 6.5 z m 5,14.7 c 3.3,0 5.3,-3.1 5.3,-6 0,-2.9 -2,-6 -5.3,-6 -3.3,0 -5.6,2.3 -5.6,6 -0.1,3.6 2.2,6 5.6,6 m 24.8,-0.5 11.2,-16.2 h -20.2 v 5.1 h 9.9 l -11.3,16.2 h 21.3 v -5.1 z m 50.7,4.1 c 0,7 -2,12.3 -11.1,12.3 -6.2,0 -11.2,-3.2 -11.5,-8.9 h 6.9 c 0.3,2.3 1.8,3.7 4.5,3.7 4.7,0 4.7,-3.6 4.7,-6.8 v -1.1 h -0.1 c -1.4,1.7 -3.8,2.6 -6.2,2.6 -6.7,0 -10.3,-5.5 -10.3,-11.2 0,-5.9 3.8,-11.5 10.6,-11.5 2.3,0 4.6,1.1 5.9,2.7 h 0.1 v -2 h 6.5 z m -11.3,-3.6 c 3.3,0 5.6,-2.7 5.6,-6 0,-3.3 -2.2,-6 -5.6,-6 -3.3,0 -5.1,2.8 -5.2,6 -0.1,3.2 1.9,6 5.2,6 m -95.2,-5.8 c 0,-6.4 -3.3,-11.6 -10.8,-11.6 -7.4,0 -11.1,5.1 -11.1,11.6 0,6.5 4.3,11.2 11.4,11.2 4.5,0 8.3,-2.2 10.1,-6 l -5.8,-1.1 c -0.9,1.4 -2.3,2.5 -4.3,2.5 -3.4,0 -4.8,-3 -4.8,-5.7 h 15.3 z m -15,-2.9 c 0.3,-2.2 1.7,-4.4 4.6,-4.4 2.7,0 4,2.2 4.3,4.4 h -8.9 m 26.9,-8 h -6.5 v 21.3 h 6.5 z m -3.2,-12.4 c -2,0 -3.7,1.6 -3.7,3.4 0,1.9 1.6,3.4 3.7,3.4 2,0 3.7,-1.5 3.7,-3.4 0,-1.8 -1.7,-3.4 -3.7,-3.4 m 69.3,12.4 h -6.5 v 21.3 h 6.5 z m -3.5,-12.4 c -2,0 -3.7,1.6 -3.7,3.4 0,1.9 1.6,3.4 3.7,3.4 2,0 3.7,-1.5 3.7,-3.4 -0.1,-1.8 -1.7,-3.4 -3.7,-3.4 m 150.4,-47.2 h -6.5 v 35.9 h 6.5 v -9.1 h 0.1 l 7.1,9.1 h 8.6 l -10,-11.9 9.2,-9.4 h -8.5 l -6.5,7.4 h -0.1 V 71 Z m 26.7,0 h -6.5 v 35.9 h 6.5 z m 91.2,14.5 v 12.6 c 0,6.2 3.4,9.5 10.2,9.5 6.8,0 10.2,-3.3 10.2,-9.5 V 85.5 h -6.5 v 11.6 c 0,2.4 -0.4,5.3 -3.7,5.3 -3.3,0 -3.7,-2.9 -3.7,-5.3 V 85.5 Z m 35,0 h -6.5 v 21.3 h 6.5 v -11 c 0,-2.3 -0.4,-6.2 3.4,-6.2 3.4,0 3.1,3.9 3.1,6 v 11.2 h 6.5 V 95.9 c 0,-2.2 -0.3,-6.2 3.5,-6.2 3.4,0 3.1,3.2 3.1,5.3 v 11.9 h 6.5 V 93.6 c 0,-4.7 -1.1,-8.6 -7.3,-8.6 -2.6,0 -5.3,1.1 -6.6,3.2 -1.5,-2.3 -3.7,-3.2 -6.6,-3.2 -2.1,0 -4.3,0.8 -5.6,2.5 h -0.1 v -2 z m -166.6,1.4 c -1.9,-1.5 -4.8,-2.1 -7.3,-2.1 -4.3,0 -7.2,3.1 -7.3,6.9 0,3.4 2.3,4.7 4.6,5.6 2.3,0.9 4.8,1.3 4.8,3.2 0,1.4 -1.4,2.3 -2.9,2.3 -1.9,0 -3.7,-0.9 -5,-2.2 l -2.8,3.7 c 2,2.3 5.1,3.2 8.2,3.2 4.8,0 8.8,-2.8 8.8,-7.5 0,-3.7 -2.3,-5 -4.6,-6 -2.3,-1 -4.8,-1.5 -4.8,-3.1 0,-1.5 1.1,-1.8 2.2,-1.8 1.3,0 2.7,0.5 3.6,1.3 z m 68.8,-1.4 h -6.5 v 21.3 h 6.5 V 96.2 c 0,-2.6 0,-6.6 3.9,-6.6 3.7,0 3.5,3.3 3.5,5.9 v 11.3 h 6.5 v -13 c 0,-5 -1.8,-9 -7.9,-9 -2.3,0 -4.6,0.7 -6,2.6 v 0 z m 43.2,-14.5 h -6.5 v 35.9 h 6.5 v -9.1 h 0.1 l 7.1,9.1 h 8.6 l -10,-11.9 9.2,-9.4 h -8.5 l -6.5,7.4 h -0.1 V 71 Z m -57.6,14.6 h -6.6 v 21.3 h 6.5 V 85.6 Z m -3.4,-12.4 c -2,0 -3.7,1.6 -3.7,3.4 0,1.9 1.6,3.4 3.7,3.4 2,0 3.7,-1.5 3.7,-3.4 0,-1.8 -1.7,-3.4 -3.7,-3.4 m 46,12.3 h -6.5 v 21.3 h 6.5 z m -3.6,-12.3 c -2,0 -3.7,1.6 -3.7,3.4 0,1.9 1.6,3.4 3.7,3.4 2,0 3.7,-1.5 3.7,-3.4 0,-1.9 -1.6,-3.4 -3.7,-3.4 m -348.1,20.5 c 0,8 3.6,14 13,14 9.4,0 13,-6 13,-14 V 74.1 h -6.8 v 18.3 c 0,4 -0.4,9.7 -6.2,9.7 -5.8,0 -6.2,-5.7 -6.2,-9.7 V 74.1 h -6.8 z m 39.8,-8.2 h -6.5 v 21.3 h 6.5 V 96.2 c 0,-2.6 0,-6.6 3.9,-6.6 3.7,0 3.5,3.3 3.5,5.9 v 11.3 h 6.5 v -13 c 0,-5 -1.8,-9 -7.9,-9 -2.3,0 -4.6,0.7 -6,2.6 h -0.1 v -1.9 z m 38.4,0 h -7 l 9.6,21.5 h 5.7 l 9,-21.5 h -7.1 l -4.4,12.2 -0.4,1.4 -0.4,-1.4 z m 41,10.9 c 0,-6.4 -3.3,-11.6 -10.8,-11.6 -7.4,0 -11.1,5.1 -11.1,11.6 0,6.5 4.3,11.2 11.4,11.2 4.5,0 8.3,-2.2 10.1,-6 l -5.8,-1.1 c -0.9,1.4 -2.3,2.5 -4.3,2.5 -3.4,0 -4.8,-3 -4.8,-5.7 h 15.4 v -0.9 z m -15,-2.9 c 0.3,-2.2 1.7,-4.4 4.6,-4.4 2.7,0 4,2.2 4.3,4.4 h -8.9 m 27.6,-8 h -6.5 v 21.3 h 6.5 V 96.5 c 0,-3.3 0.5,-6.3 5,-6.3 1,0 1.9,0 2.8,0.5 l 0.7,-5.3 c -0.8,-0.3 -1.8,-0.3 -2.7,-0.3 -2.4,0 -4.4,0.9 -5.7,2.7 h -0.1 z m 25.3,1.4 c -1.9,-1.5 -4.8,-2.1 -7.3,-2.1 -4.3,0 -7.2,3.1 -7.3,6.9 0,3.4 2.3,4.7 4.6,5.6 2.3,0.9 4.8,1.3 4.8,3.2 0,1.4 -1.4,2.3 -2.9,2.3 -1.9,0 -3.7,-0.9 -5,-2.2 l -2.8,3.7 c 2,2.3 5.1,3.2 8.2,3.2 4.8,0 8.8,-2.8 8.8,-7.5 0,-3.7 -2.3,-5 -4.6,-6 -2.3,-1 -4.8,-1.5 -4.8,-3.1 0,-1.5 1.1,-1.8 2.2,-1.8 1.3,0 2.7,0.5 3.6,1.3 z m 29.1,3.8 h 3.6 v -5.2 h -3.6 v -7.2 h -6.5 v 7.2 h -2.6 v 5.1 h 2.6 v 16.2 h 6.5 z m 45.9,0 h 3.6 v -5.2 h -3.6 v -7.2 h -6.5 v 7.2 h -2.6 v 5.1 h 2.6 v 16.2 h 6.5 z m -167.8,-17.5 c -2,0 -3.7,1.6 -3.7,3.4 0,1.9 1.6,3.4 3.7,3.4 2,0 3.7,-1.5 3.7,-3.4 -0.1,-1.9 -1.7,-3.4 -3.7,-3.4 m 3.2,12.3 h -6.5 v 21.3 h 6.5 z m 103.7,0 h -6.5 v 21.3 h 6.5 z m -3.3,-12.3 c -2,0 -3.7,1.6 -3.7,3.4 0,1.9 1.6,3.4 3.7,3.4 2,0 3.7,-1.5 3.7,-3.4 0,-1.9 -1.7,-3.4 -3.7,-3.4 m 48.7,33.7 h -6.4 v -2 h -0.1 c -1.4,1.7 -3.8,2.5 -6.2,2.5 -7,0 -10.5,-5.5 -10.5,-11.3 0,-5.7 3.6,-11.1 10.4,-11.1 2.4,0 4.8,0.8 6.4,2.5 v -2 h 6.4 z m -11.3,-4.7 c 3.3,0 5.4,-2.7 5.4,-6 0,-3.2 -2.1,-6 -5.4,-6 -3.3,0 -5.6,2.8 -5.6,6 0,3.3 2.3,6 5.6,6 m -4.7,-29 c -2,0 -3.7,1.6 -3.7,3.4 0,1.9 1.6,3.4 3.7,3.4 2,0 3.7,-1.5 3.7,-3.4 0,-1.9 -1.7,-3.4 -3.7,-3.4 m 9.9,0 c -2,0 -3.7,1.6 -3.7,3.4 0,1.9 1.6,3.4 3.7,3.4 2,0 3.7,-1.5 3.7,-3.4 0,-1.9 -1.6,-3.4 -3.7,-3.4" />
<path
   id="XMLID_1_"
   class="st1"
   d="m 285.55079,178.4 7.6,17.5 7.6,-17.5 4.2,22.1 h -2.4 l -2.7,-14.1 v 0 l -6.7,15 -6.7,-15 h -0.1 l -2.7,14.1 h -2.4 z m 33.4,16.1 c 0.2,-3.9 -2,-7.3 -6.2,-7.3 -4.1,0 -6.3,3.2 -6.3,7 0,3.7 2.5,6.7 6.4,6.7 2.7,0 4.8,-1.3 6,-3.7 l -1.9,-1.1 c -0.9,1.6 -2.1,2.7 -4,2.7 -2.5,0 -4.2,-1.9 -4.3,-4.3 z m -10.1,-1.9 c 0.3,-1.9 2,-3.4 4,-3.4 1.9,0 3.5,1.5 3.8,3.4 z m 22.9,7.9 h 2.2 v -22.9 h -2.2 v 11.7 h -0.1 c -1.1,-1.4 -2.7,-2.2 -4.5,-2.2 -3.9,0 -6.3,3.2 -6.3,6.9 0,3.6 2.4,6.8 6.2,6.8 1.8,0 3.4,-0.8 4.5,-2.2 h 0.1 v 1.9 z m -8.5,-6.6 c 0,-2.4 1.7,-4.7 4.2,-4.7 2.7,0 4.4,2.1 4.4,4.7 0,2.6 -1.5,4.9 -4.4,4.9 -2.7,0 -4.2,-2.4 -4.2,-4.9 m 17.9,-11.3 c 0,-0.9 -0.7,-1.6 -1.6,-1.6 -0.9,0 -1.6,0.7 -1.6,1.6 0,0.9 0.7,1.6 1.6,1.6 0.9,0 1.6,-0.7 1.6,-1.6 m -0.5,4.9 h -2.2 v 13 h 2.2 z m 7.3,11 9.4,-11 h -12.1 v 2.1 h 7.7 l -9.4,11 h 13.5 v -2 h -9.1 z m 14.9,-15.9 c 0,-0.9 -0.7,-1.6 -1.6,-1.6 -0.9,0 -1.6,0.7 -1.6,1.6 0,0.9 0.7,1.6 1.6,1.6 0.8,0 1.6,-0.7 1.6,-1.6 m -0.5,4.9 h -2.2 v 13 h 2.2 z m 6.8,0 h -2.2 v 13 h 2.2 v -6.2 c 0,-2.3 0.2,-5.2 3.2,-5.2 2.6,0 2.7,1.9 2.7,4 v 7.3 h 2.2 v -7.7 c 0,-3.1 -0.8,-5.7 -4.4,-5.7 -1.6,0 -2.8,0.7 -3.7,1.9 h -0.1 v -1.4 z m 24.1,-4.9 c 0,-0.9 -0.7,-1.6 -1.6,-1.6 -0.9,0 -1.6,0.7 -1.6,1.6 0,0.9 0.7,1.6 1.6,1.6 0.9,0 1.6,-0.7 1.6,-1.6 m -0.5,4.9 h -2.2 v 13 h 2.2 z m 11.8,2.1 c -0.6,-1.4 -2,-2.4 -3.5,-2.4 -2.1,0 -3.9,1.5 -3.9,3.7 0,4.1 5.9,3.1 5.9,6 0,1.2 -0.9,2 -2.1,2 -1.5,0 -2.1,-0.9 -2.7,-2.1 l -2,0.8 c 0.7,2.1 2.4,3.3 4.6,3.3 2.4,0 4.4,-1.8 4.4,-4.2 0,-2.2 -1.5,-3.1 -3,-3.7 -1.5,-0.6 -3,-1.1 -3,-2.3 0,-0.8 0.8,-1.4 1.6,-1.4 0.8,0 1.5,0.6 1.8,1.3 z m 6.2,0 h 2.3 v -2 h -2.3 v -4.7 h -2.2 v 4.7 h -1.4 v 2 h 1.4 v 11 h 2.2 z m 15,-2.1 h -2.2 v 7.5 c 0,3.5 1.3,5.9 5.2,5.9 3.9,0 5.2,-2.4 5.2,-5.9 v -7.5 h -2.2 v 7.3 c 0,2.2 -0.2,4.1 -2.9,4.1 -2.7,0 -2.9,-1.9 -2.9,-4.1 v -7.3 z m 14.3,0 h -2.2 v 13 h 2.2 v -6.2 c 0,-2.3 0.2,-5.2 3.2,-5.2 2.6,0 2.7,1.9 2.7,4 v 7.3 h 2.2 v -7.7 c 0,-3.1 -0.8,-5.7 -4.4,-5.7 -1.6,0 -2.8,0.7 -3.7,1.9 h -0.1 v -1.4 z m 19.6,2.1 c -0.6,-1.4 -2,-2.4 -3.5,-2.4 -2.1,0 -3.9,1.5 -3.9,3.7 0,4.1 5.9,3.1 5.9,6 0,1.2 -0.9,2 -2.1,2 -1.5,0 -2.1,-0.9 -2.7,-2.1 l -2,0.8 c 0.7,2.1 2.4,3.3 4.6,3.3 2.4,0 4.4,-1.8 4.4,-4.2 0,-2.2 -1.5,-3.1 -3,-3.7 -1.5,-0.6 -3,-1.1 -3,-2.3 0,-0.8 0.8,-1.4 1.6,-1.4 0.8,0 1.5,0.6 1.8,1.3 z m 15.2,4.9 c 0.2,-3.9 -2,-7.3 -6.2,-7.3 -4.1,0 -6.3,3.2 -6.3,7 0,3.7 2.5,6.7 6.4,6.7 2.7,0 4.8,-1.3 6,-3.7 l -1.9,-1.1 c -0.9,1.6 -2.1,2.7 -4,2.7 -2.5,0 -4.2,-1.9 -4.3,-4.3 h 10.3 z m -10.1,-1.9 c 0.3,-1.9 2.1,-3.4 4,-3.4 1.9,0 3.5,1.5 3.8,3.4 z m 15.3,-5.1 h -2.2 v 13 h 2.2 V 194 c 0,-1.7 0.1,-4.8 2.6,-4.8 0.6,0 0.9,0.3 1.3,0.6 l 1.1,-2 c -0.6,-0.4 -1.2,-0.6 -2,-0.6 -1.4,0 -2.1,0.8 -2.9,1.8 h -0.1 v -1.5 z m 18.5,7 c 0.2,-3.9 -2,-7.3 -6.2,-7.3 -4.1,0 -6.3,3.2 -6.3,7 0,3.7 2.5,6.7 6.4,6.7 2.7,0 4.8,-1.3 6,-3.7 l -1.9,-1.1 c -0.9,1.6 -2.1,2.7 -4,2.7 -2.5,0 -4.2,-1.9 -4.3,-4.3 z m -10.1,-1.9 c 0.3,-1.9 2.1,-3.4 4,-3.4 1.9,0 3.5,1.5 3.8,3.4 z m 21.7,7.9 h 4.9 c 4.1,0 7.5,-1.7 7.5,-5.8 0,-2.5 -1.5,-4.7 -4,-5.4 1.4,-0.9 2,-2.4 2,-4.1 0,-4.3 -3.2,-5.7 -7,-5.7 h -3.4 z m 2.3,-18.7 h 0.9 c 2.9,0 4.8,0.3 4.8,3.5 0,3.2 -2.2,3.5 -4.9,3.5 h -0.9 v -7 z m 0,9 h 2 c 2.5,0 5.7,0.5 5.7,3.7 0,3.2 -2.7,3.8 -5.4,3.8 h -2.3 z m 24.8,3.7 c 0.2,-3.9 -2,-7.3 -6.2,-7.3 -4.1,0 -6.3,3.2 -6.3,7 0,3.7 2.5,6.7 6.4,6.7 2.7,0 4.8,-1.3 6,-3.7 l -1.9,-1.1 c -0.9,1.6 -2.1,2.7 -4,2.7 -2.5,0 -4.2,-1.9 -4.3,-4.3 z m -10.1,-1.9 c 0.3,-1.9 2.1,-3.4 4,-3.4 1.9,0 3.5,1.5 3.8,3.4 z m 15.2,-5.1 h -2.2 v 13 h 2.2 V 194 c 0,-1.7 0.1,-4.8 2.6,-4.8 0.6,0 0.9,0.3 1.3,0.6 l 1.1,-2 c -0.6,-0.4 -1.2,-0.6 -2,-0.6 -1.4,0 -2.1,0.8 -2.9,1.8 h -0.1 z m 9.3,0 h -2.2 v 7.5 c 0,3.5 1.3,5.9 5.2,5.9 3.9,0 5.2,-2.4 5.2,-5.9 v -7.5 h -2.2 v 7.3 c 0,2.2 -0.2,4.1 -2.9,4.1 -2.7,0 -2.9,-1.9 -2.9,-4.1 v -7.3 z m 14.5,2.1 h 3.3 v -2 h -3.3 v -4.4 c 0,-2.3 0,-3.6 1.8,-3.6 0.6,0 1,0.1 1.5,0.3 v -2.2 c -0.5,-0.2 -1.1,-0.3 -1.6,-0.3 -1.3,0 -2.6,0.5 -3.4,1.6 -0.6,0.9 -0.6,2.3 -0.6,3.4 v 5.2 h -1.2 v 2 h 1.2 v 11 h 2.2 v -11 z m 7.3,-2.1 h -2.2 v 7.5 c 0,3.5 1.3,5.9 5.2,5.9 3.9,0 5.2,-2.4 5.2,-5.9 v -7.5 h -2.2 v 7.3 c 0,2.2 -0.2,4.1 -2.9,4.1 -2.7,0 -2.9,-1.9 -2.9,-4.1 v -7.3 z m 14.3,0 h -2.2 v 13 h 2.2 v -6.2 c 0,-2.3 0.2,-5.2 3.2,-5.2 2.6,0 2.7,1.9 2.7,4 v 7.3 h 2.2 v -7.7 c 0,-3.1 -0.8,-5.7 -4.4,-5.7 -1.6,0 -2.8,0.7 -3.7,1.9 h -0.1 v -1.4 z m 24.2,0 h -2.2 v 1.9 h -0.1 c -1.1,-1.4 -2.6,-2.2 -4.4,-2.2 -3.9,0 -6.3,3.3 -6.3,6.9 0,3.6 2.4,6.8 6.2,6.8 1.7,0 3.5,-0.8 4.5,-2.2 h 0.1 v 1.6 c 0,2.9 -0.7,5.5 -4.2,5.5 -2.4,0 -4.1,-1.5 -4.2,-3.9 h -2.2 c 0.1,3.7 2.8,6 6.4,6 1.9,0 3.8,-0.7 5,-2.3 1.3,-1.7 1.3,-3.5 1.3,-5.6 v -12.5 z m -10.7,6.4 c 0,-2.4 1.7,-4.7 4.2,-4.7 2.7,0 4.4,2.1 4.4,4.7 0,2.6 -1.5,4.9 -4.4,4.9 -2.7,0 -4.2,-2.4 -4.2,-4.9 m 18.7,5.4 c 0,-0.8 -0.7,-1.5 -1.6,-1.5 -0.9,0 -1.6,0.7 -1.6,1.5 0,0.9 0.7,1.6 1.6,1.6 0.9,0 1.6,-0.7 1.6,-1.6" />
</svg>
