<?xml version="1.0" encoding="UTF-8"?><svg id="a" xmlns="http://www.w3.org/2000/svg" viewBox="0 0 838.17 470"><defs><style>.d{fill:#007083;stroke-width:0px;}</style></defs><path id="b" class="d" d="M258.8,225.08V75.23L129.4,0,0,75.23v149.86l129.4,75.29,129.4-75.29h0ZM177.92,178.3l-48.52,28.2-48.52-28.2v-56.17l48.52,28.97,48.52-28.97v56.17h0ZM177.92,441.74v-56.17l-48.52-28.26-48.52,28.26v56.17l48.52,28.26,48.52-28.26Z"/><g id="c"><path class="d" d="M332.03,1h27.05l20.54,84.44L400.16,1h27.05v134.83h-21.37V53.9l-20.71,81.93h-11.02l-20.71-81.93v81.93h-21.37V1Z"/><path class="d" d="M450.92,1h63.29v19.86h-39.74v37.71h37.4v19.69h-37.4v37.71h39.74v19.86h-63.29V1Z"/><path class="d" d="M535.24,1h36.23c29.72,0,42.25,10.85,42.25,42.72v49.39c0,31.54-12.52,42.72-42.25,42.72h-36.23V1ZM571.81,117.48c13.02,0,17.87-5.01,17.87-20.53v-57.07c0-15.52-5.01-20.52-18.03-20.52h-12.86v98.12h13.02Z"/><path class="d" d="M631.43,114.81h8.68V22.02h-8.68V1h40.74v21.03h-8.52v92.78h8.52v21.03h-40.74v-21.03Z"/><path class="d" d="M713.41,1h32.39l25.72,134.83h-24.21l-3.67-23.36h-28.22l-3.67,23.36h-24.05L713.41,1ZM740.63,92.61l-10.52-66.75-.5-2.67-.67,2.67-10.52,66.75h22.21Z"/><path class="d" d="M332.08,167.29h23.54v114.98h40.08v19.86h-63.62v-134.83Z"/><path class="d" d="M436.14,167.29h32.39l25.72,134.83h-24.21l-3.67-23.36h-28.22l-3.67,23.36h-24.05l25.72-134.83ZM463.36,258.9l-10.52-66.75-.5-2.67-.67,2.67-10.52,66.75h22.21Z"/><path class="d" d="M510.95,167.29h41.24c24.88,0,34.73,12.85,34.73,33.54v3.34c0,15.19-6.34,22.86-16.36,26.87,11.02,4,18.37,13.18,18.37,29.87v3.34c0,25.36-9.69,37.88-35.57,37.88h-42.41v-134.83ZM549.69,222.36c8.18,0,13.19-2.5,13.19-13.35v-9.01c0-10.68-4.17-12.85-13.02-12.85h-15.36v35.21h15.2ZM550.52,282.26c11.02,0,14.19-3.17,14.19-14.52v-10.85c0-10.68-4.17-14.69-14.19-14.69h-16.03v40.05h16.03Z"/><path class="d" d="M331.88,334.16h34.56c22.21,0,33.06,7.34,33.06,30.7v5.01c0,15.52-7.18,23.2-16.03,26.87,10.85,3.5,19.54,12.18,19.54,31.71v5.51c0,25.7-10.02,35.04-35.9,35.04h-35.23v-134.83ZM364.61,392.4c11.86,0,22.54-3.17,22.54-21.53v-6.34c0-18.36-7.51-20.19-22.21-20.19h-20.87v48.06h20.54ZM365.94,458.82c19.7,0,24.71-5.01,24.71-24.2v-7.18c0-17.69-7.68-24.86-25.05-24.86h-21.54v56.24h21.87Z"/><path class="d" d="M444.43,334.16h16.53l29.05,134.83h-12.52l-6.01-29.37h-37.57l-6.01,29.37h-12.52l29.05-134.83ZM469.47,429.45l-16.7-82.27-.17-.5v.17l-16.7,82.6h33.56Z"/><path class="d" d="M523.07,421.77l-32.06-87.61h12.86l25.21,72.59,25.21-72.59h13.02l-32.06,87.61v47.22h-12.19v-47.22Z"/><path class="d" d="M584.69,334.16h59.11v10.18h-46.92v52.23h44.92v10.01h-44.92v52.23h46.92v10.18h-59.11v-134.83Z"/><path class="d" d="M726.62,456.98v-25.03c0-21.53-14.69-23.36-24.88-23.36h-20.71v60.41h-12.19v-134.83h32.9c27.39,0,37.57,7.84,37.57,34.54v2.5c0,16.02-4.51,26.87-19.2,32.04,12.69,4.17,18.87,13.68,18.87,29.2v24.53c0,4.84.17,9.85,1.84,12.01h-12.19c-1.84-2-2-7.01-2-12.01ZM701.74,398.74c19.04,0,25.21-8.68,25.21-25.2v-5.67c0-21.36-7.51-23.86-25.72-23.86h-20.2v54.73h20.71Z"/><path class="d" d="M766.2,334.16h11.69l48.93,107.47v-107.47h11.35v134.83h-11.69l-48.93-107.47v107.47h-11.35v-134.83Z"/></g></svg>